<?xml version="1.0" encoding="utf-8" standalone="no"?>
<!DOCTYPE svg PUBLIC "-//W3C//DTD SVG 1.1//EN"
  "http://www.w3.org/Graphics/SVG/1.1/DTD/svg11.dtd">
<svg xmlns:xlink="http://www.w3.org/1999/xlink" width="864pt" height="432pt" viewBox="0 0 864 432" xmlns="http://www.w3.org/2000/svg" version="1.1">
 <metadata>
  <rdf:RDF xmlns:dc="http://purl.org/dc/elements/1.1/" xmlns:cc="http://creativecommons.org/ns#" xmlns:rdf="http://www.w3.org/1999/02/22-rdf-syntax-ns#">
   <cc:Work>
    <dc:type rdf:resource="http://purl.org/dc/dcmitype/StillImage"/>
    <dc:date>2024-09-01T12:42:10.577219</dc:date>
    <dc:format>image/svg+xml</dc:format>
    <dc:creator>
     <cc:Agent>
      <dc:title>Matplotlib v3.8.4, https://matplotlib.org/</dc:title>
     </cc:Agent>
    </dc:creator>
   </cc:Work>
  </rdf:RDF>
 </metadata>
 <defs>
  <style type="text/css">*{stroke-linejoin: round; stroke-linecap: butt}</style>
 </defs>
 <g id="figure_1">
  <g id="patch_1">
   <path d="M 0 432 
L 864 432 
L 864 0 
L 0 0 
z
" style="fill: #ffffff"/>
  </g>
  <g id="axes_1">
   <g id="patch_2">
    <path d="M 108 384.48 
L 777.6 384.48 
L 777.6 51.84 
L 108 51.84 
z
" style="fill: #ffffff"/>
   </g>
   <g id="matplotlib.axis_1">
    <g id="xtick_1">
     <g id="line2d_1">
      <path d="M 138.436364 384.48 
L 138.436364 51.84 
" clip-path="url(#p90e151c80f)" style="fill: none; stroke: #b0b0b0; stroke-width: 0.8; stroke-linecap: square"/>
     </g>
     <g id="line2d_2">
      <defs>
       <path id="m79f5af2048" d="M 0 0 
L 0 3.5 
" style="stroke: #000000; stroke-width: 0.8"/>
      </defs>
      <g>
       <use xlink:href="#m79f5af2048" x="138.436364" y="384.48" style="stroke: #000000; stroke-width: 0.8"/>
      </g>
     </g>
     <g id="text_1">
      <!-- 0 -->
      <g transform="translate(135.255114 399.078438) scale(0.1 -0.1)">
       <defs>
        <path id="DejaVuSans-30" d="M 2034 4250 
Q 1547 4250 1301 3770 
Q 1056 3291 1056 2328 
Q 1056 1369 1301 889 
Q 1547 409 2034 409 
Q 2525 409 2770 889 
Q 3016 1369 3016 2328 
Q 3016 3291 2770 3770 
Q 2525 4250 2034 4250 
z
M 2034 4750 
Q 2819 4750 3233 4129 
Q 3647 3509 3647 2328 
Q 3647 1150 3233 529 
Q 2819 -91 2034 -91 
Q 1250 -91 836 529 
Q 422 1150 422 2328 
Q 422 3509 836 4129 
Q 1250 4750 2034 4750 
z
" transform="scale(0.015625)"/>
       </defs>
       <use xlink:href="#DejaVuSans-30"/>
      </g>
     </g>
    </g>
    <g id="xtick_2">
     <g id="line2d_3">
      <path d="M 253.290566 384.48 
L 253.290566 51.84 
" clip-path="url(#p90e151c80f)" style="fill: none; stroke: #b0b0b0; stroke-width: 0.8; stroke-linecap: square"/>
     </g>
     <g id="line2d_4">
      <g>
       <use xlink:href="#m79f5af2048" x="253.290566" y="384.48" style="stroke: #000000; stroke-width: 0.8"/>
      </g>
     </g>
     <g id="text_2">
      <!-- 20 -->
      <g transform="translate(246.928066 399.078438) scale(0.1 -0.1)">
       <defs>
        <path id="DejaVuSans-32" d="M 1228 531 
L 3431 531 
L 3431 0 
L 469 0 
L 469 531 
Q 828 903 1448 1529 
Q 2069 2156 2228 2338 
Q 2531 2678 2651 2914 
Q 2772 3150 2772 3378 
Q 2772 3750 2511 3984 
Q 2250 4219 1831 4219 
Q 1534 4219 1204 4116 
Q 875 4013 500 3803 
L 500 4441 
Q 881 4594 1212 4672 
Q 1544 4750 1819 4750 
Q 2544 4750 2975 4387 
Q 3406 4025 3406 3419 
Q 3406 3131 3298 2873 
Q 3191 2616 2906 2266 
Q 2828 2175 2409 1742 
Q 1991 1309 1228 531 
z
" transform="scale(0.015625)"/>
       </defs>
       <use xlink:href="#DejaVuSans-32"/>
       <use xlink:href="#DejaVuSans-30" x="63.623047"/>
      </g>
     </g>
    </g>
    <g id="xtick_3">
     <g id="line2d_5">
      <path d="M 368.144768 384.48 
L 368.144768 51.84 
" clip-path="url(#p90e151c80f)" style="fill: none; stroke: #b0b0b0; stroke-width: 0.8; stroke-linecap: square"/>
     </g>
     <g id="line2d_6">
      <g>
       <use xlink:href="#m79f5af2048" x="368.144768" y="384.48" style="stroke: #000000; stroke-width: 0.8"/>
      </g>
     </g>
     <g id="text_3">
      <!-- 40 -->
      <g transform="translate(361.782268 399.078438) scale(0.1 -0.1)">
       <defs>
        <path id="DejaVuSans-34" d="M 2419 4116 
L 825 1625 
L 2419 1625 
L 2419 4116 
z
M 2253 4666 
L 3047 4666 
L 3047 1625 
L 3713 1625 
L 3713 1100 
L 3047 1100 
L 3047 0 
L 2419 0 
L 2419 1100 
L 313 1100 
L 313 1709 
L 2253 4666 
z
" transform="scale(0.015625)"/>
       </defs>
       <use xlink:href="#DejaVuSans-34"/>
       <use xlink:href="#DejaVuSans-30" x="63.623047"/>
      </g>
     </g>
    </g>
    <g id="xtick_4">
     <g id="line2d_7">
      <path d="M 482.998971 384.48 
L 482.998971 51.84 
" clip-path="url(#p90e151c80f)" style="fill: none; stroke: #b0b0b0; stroke-width: 0.8; stroke-linecap: square"/>
     </g>
     <g id="line2d_8">
      <g>
       <use xlink:href="#m79f5af2048" x="482.998971" y="384.48" style="stroke: #000000; stroke-width: 0.8"/>
      </g>
     </g>
     <g id="text_4">
      <!-- 60 -->
      <g transform="translate(476.636471 399.078438) scale(0.1 -0.1)">
       <defs>
        <path id="DejaVuSans-36" d="M 2113 2584 
Q 1688 2584 1439 2293 
Q 1191 2003 1191 1497 
Q 1191 994 1439 701 
Q 1688 409 2113 409 
Q 2538 409 2786 701 
Q 3034 994 3034 1497 
Q 3034 2003 2786 2293 
Q 2538 2584 2113 2584 
z
M 3366 4563 
L 3366 3988 
Q 3128 4100 2886 4159 
Q 2644 4219 2406 4219 
Q 1781 4219 1451 3797 
Q 1122 3375 1075 2522 
Q 1259 2794 1537 2939 
Q 1816 3084 2150 3084 
Q 2853 3084 3261 2657 
Q 3669 2231 3669 1497 
Q 3669 778 3244 343 
Q 2819 -91 2113 -91 
Q 1303 -91 875 529 
Q 447 1150 447 2328 
Q 447 3434 972 4092 
Q 1497 4750 2381 4750 
Q 2619 4750 2861 4703 
Q 3103 4656 3366 4563 
z
" transform="scale(0.015625)"/>
       </defs>
       <use xlink:href="#DejaVuSans-36"/>
       <use xlink:href="#DejaVuSans-30" x="63.623047"/>
      </g>
     </g>
    </g>
    <g id="xtick_5">
     <g id="line2d_9">
      <path d="M 597.853173 384.48 
L 597.853173 51.84 
" clip-path="url(#p90e151c80f)" style="fill: none; stroke: #b0b0b0; stroke-width: 0.8; stroke-linecap: square"/>
     </g>
     <g id="line2d_10">
      <g>
       <use xlink:href="#m79f5af2048" x="597.853173" y="384.48" style="stroke: #000000; stroke-width: 0.8"/>
      </g>
     </g>
     <g id="text_5">
      <!-- 80 -->
      <g transform="translate(591.490673 399.078438) scale(0.1 -0.1)">
       <defs>
        <path id="DejaVuSans-38" d="M 2034 2216 
Q 1584 2216 1326 1975 
Q 1069 1734 1069 1313 
Q 1069 891 1326 650 
Q 1584 409 2034 409 
Q 2484 409 2743 651 
Q 3003 894 3003 1313 
Q 3003 1734 2745 1975 
Q 2488 2216 2034 2216 
z
M 1403 2484 
Q 997 2584 770 2862 
Q 544 3141 544 3541 
Q 544 4100 942 4425 
Q 1341 4750 2034 4750 
Q 2731 4750 3128 4425 
Q 3525 4100 3525 3541 
Q 3525 3141 3298 2862 
Q 3072 2584 2669 2484 
Q 3125 2378 3379 2068 
Q 3634 1759 3634 1313 
Q 3634 634 3220 271 
Q 2806 -91 2034 -91 
Q 1263 -91 848 271 
Q 434 634 434 1313 
Q 434 1759 690 2068 
Q 947 2378 1403 2484 
z
M 1172 3481 
Q 1172 3119 1398 2916 
Q 1625 2713 2034 2713 
Q 2441 2713 2670 2916 
Q 2900 3119 2900 3481 
Q 2900 3844 2670 4047 
Q 2441 4250 2034 4250 
Q 1625 4250 1398 4047 
Q 1172 3844 1172 3481 
z
" transform="scale(0.015625)"/>
       </defs>
       <use xlink:href="#DejaVuSans-38"/>
       <use xlink:href="#DejaVuSans-30" x="63.623047"/>
      </g>
     </g>
    </g>
    <g id="xtick_6">
     <g id="line2d_11">
      <path d="M 712.707376 384.48 
L 712.707376 51.84 
" clip-path="url(#p90e151c80f)" style="fill: none; stroke: #b0b0b0; stroke-width: 0.8; stroke-linecap: square"/>
     </g>
     <g id="line2d_12">
      <g>
       <use xlink:href="#m79f5af2048" x="712.707376" y="384.48" style="stroke: #000000; stroke-width: 0.8"/>
      </g>
     </g>
     <g id="text_6">
      <!-- 100 -->
      <g transform="translate(703.163626 399.078438) scale(0.1 -0.1)">
       <defs>
        <path id="DejaVuSans-31" d="M 794 531 
L 1825 531 
L 1825 4091 
L 703 3866 
L 703 4441 
L 1819 4666 
L 2450 4666 
L 2450 531 
L 3481 531 
L 3481 0 
L 794 0 
L 794 531 
z
" transform="scale(0.015625)"/>
       </defs>
       <use xlink:href="#DejaVuSans-31"/>
       <use xlink:href="#DejaVuSans-30" x="63.623047"/>
       <use xlink:href="#DejaVuSans-30" x="127.246094"/>
      </g>
     </g>
    </g>
    <g id="text_7">
     <!-- Epoch -->
     <g transform="translate(427.489062 412.756563) scale(0.1 -0.1)">
      <defs>
       <path id="DejaVuSans-45" d="M 628 4666 
L 3578 4666 
L 3578 4134 
L 1259 4134 
L 1259 2753 
L 3481 2753 
L 3481 2222 
L 1259 2222 
L 1259 531 
L 3634 531 
L 3634 0 
L 628 0 
L 628 4666 
z
" transform="scale(0.015625)"/>
       <path id="DejaVuSans-70" d="M 1159 525 
L 1159 -1331 
L 581 -1331 
L 581 3500 
L 1159 3500 
L 1159 2969 
Q 1341 3281 1617 3432 
Q 1894 3584 2278 3584 
Q 2916 3584 3314 3078 
Q 3713 2572 3713 1747 
Q 3713 922 3314 415 
Q 2916 -91 2278 -91 
Q 1894 -91 1617 61 
Q 1341 213 1159 525 
z
M 3116 1747 
Q 3116 2381 2855 2742 
Q 2594 3103 2138 3103 
Q 1681 3103 1420 2742 
Q 1159 2381 1159 1747 
Q 1159 1113 1420 752 
Q 1681 391 2138 391 
Q 2594 391 2855 752 
Q 3116 1113 3116 1747 
z
" transform="scale(0.015625)"/>
       <path id="DejaVuSans-6f" d="M 1959 3097 
Q 1497 3097 1228 2736 
Q 959 2375 959 1747 
Q 959 1119 1226 758 
Q 1494 397 1959 397 
Q 2419 397 2687 759 
Q 2956 1122 2956 1747 
Q 2956 2369 2687 2733 
Q 2419 3097 1959 3097 
z
M 1959 3584 
Q 2709 3584 3137 3096 
Q 3566 2609 3566 1747 
Q 3566 888 3137 398 
Q 2709 -91 1959 -91 
Q 1206 -91 779 398 
Q 353 888 353 1747 
Q 353 2609 779 3096 
Q 1206 3584 1959 3584 
z
" transform="scale(0.015625)"/>
       <path id="DejaVuSans-63" d="M 3122 3366 
L 3122 2828 
Q 2878 2963 2633 3030 
Q 2388 3097 2138 3097 
Q 1578 3097 1268 2742 
Q 959 2388 959 1747 
Q 959 1106 1268 751 
Q 1578 397 2138 397 
Q 2388 397 2633 464 
Q 2878 531 3122 666 
L 3122 134 
Q 2881 22 2623 -34 
Q 2366 -91 2075 -91 
Q 1284 -91 818 406 
Q 353 903 353 1747 
Q 353 2603 823 3093 
Q 1294 3584 2113 3584 
Q 2378 3584 2631 3529 
Q 2884 3475 3122 3366 
z
" transform="scale(0.015625)"/>
       <path id="DejaVuSans-68" d="M 3513 2113 
L 3513 0 
L 2938 0 
L 2938 2094 
Q 2938 2591 2744 2837 
Q 2550 3084 2163 3084 
Q 1697 3084 1428 2787 
Q 1159 2491 1159 1978 
L 1159 0 
L 581 0 
L 581 4863 
L 1159 4863 
L 1159 2956 
Q 1366 3272 1645 3428 
Q 1925 3584 2291 3584 
Q 2894 3584 3203 3211 
Q 3513 2838 3513 2113 
z
" transform="scale(0.015625)"/>
      </defs>
      <use xlink:href="#DejaVuSans-45"/>
      <use xlink:href="#DejaVuSans-70" x="63.183594"/>
      <use xlink:href="#DejaVuSans-6f" x="126.660156"/>
      <use xlink:href="#DejaVuSans-63" x="187.841797"/>
      <use xlink:href="#DejaVuSans-68" x="242.822266"/>
     </g>
    </g>
   </g>
   <g id="matplotlib.axis_2">
    <g id="ytick_1">
     <g id="line2d_13">
      <path d="M 108 370.155665 
L 777.6 370.155665 
" clip-path="url(#p90e151c80f)" style="fill: none; stroke: #b0b0b0; stroke-width: 0.8; stroke-linecap: square"/>
     </g>
     <g id="line2d_14">
      <defs>
       <path id="m561174d004" d="M 0 0 
L -3.5 0 
" style="stroke: #000000; stroke-width: 0.8"/>
      </defs>
      <g>
       <use xlink:href="#m561174d004" x="108" y="370.155665" style="stroke: #000000; stroke-width: 0.8"/>
      </g>
     </g>
     <g id="text_8">
      <!-- 0 -->
      <g transform="translate(94.6375 373.954884) scale(0.1 -0.1)">
       <use xlink:href="#DejaVuSans-30"/>
      </g>
     </g>
    </g>
    <g id="ytick_2">
     <g id="line2d_15">
      <path d="M 108 302.726406 
L 777.6 302.726406 
" clip-path="url(#p90e151c80f)" style="fill: none; stroke: #b0b0b0; stroke-width: 0.8; stroke-linecap: square"/>
     </g>
     <g id="line2d_16">
      <g>
       <use xlink:href="#m561174d004" x="108" y="302.726406" style="stroke: #000000; stroke-width: 0.8"/>
      </g>
     </g>
     <g id="text_9">
      <!-- 1 -->
      <g transform="translate(94.6375 306.525625) scale(0.1 -0.1)">
       <use xlink:href="#DejaVuSans-31"/>
      </g>
     </g>
    </g>
    <g id="ytick_3">
     <g id="line2d_17">
      <path d="M 108 235.297146 
L 777.6 235.297146 
" clip-path="url(#p90e151c80f)" style="fill: none; stroke: #b0b0b0; stroke-width: 0.8; stroke-linecap: square"/>
     </g>
     <g id="line2d_18">
      <g>
       <use xlink:href="#m561174d004" x="108" y="235.297146" style="stroke: #000000; stroke-width: 0.8"/>
      </g>
     </g>
     <g id="text_10">
      <!-- 2 -->
      <g transform="translate(94.6375 239.096365) scale(0.1 -0.1)">
       <use xlink:href="#DejaVuSans-32"/>
      </g>
     </g>
    </g>
    <g id="ytick_4">
     <g id="line2d_19">
      <path d="M 108 167.867887 
L 777.6 167.867887 
" clip-path="url(#p90e151c80f)" style="fill: none; stroke: #b0b0b0; stroke-width: 0.8; stroke-linecap: square"/>
     </g>
     <g id="line2d_20">
      <g>
       <use xlink:href="#m561174d004" x="108" y="167.867887" style="stroke: #000000; stroke-width: 0.8"/>
      </g>
     </g>
     <g id="text_11">
      <!-- 3 -->
      <g transform="translate(94.6375 171.667106) scale(0.1 -0.1)">
       <defs>
        <path id="DejaVuSans-33" d="M 2597 2516 
Q 3050 2419 3304 2112 
Q 3559 1806 3559 1356 
Q 3559 666 3084 287 
Q 2609 -91 1734 -91 
Q 1441 -91 1130 -33 
Q 819 25 488 141 
L 488 750 
Q 750 597 1062 519 
Q 1375 441 1716 441 
Q 2309 441 2620 675 
Q 2931 909 2931 1356 
Q 2931 1769 2642 2001 
Q 2353 2234 1838 2234 
L 1294 2234 
L 1294 2753 
L 1863 2753 
Q 2328 2753 2575 2939 
Q 2822 3125 2822 3475 
Q 2822 3834 2567 4026 
Q 2313 4219 1838 4219 
Q 1578 4219 1281 4162 
Q 984 4106 628 3988 
L 628 4550 
Q 988 4650 1302 4700 
Q 1616 4750 1894 4750 
Q 2613 4750 3031 4423 
Q 3450 4097 3450 3541 
Q 3450 3153 3228 2886 
Q 3006 2619 2597 2516 
z
" transform="scale(0.015625)"/>
       </defs>
       <use xlink:href="#DejaVuSans-33"/>
      </g>
     </g>
    </g>
    <g id="ytick_5">
     <g id="line2d_21">
      <path d="M 108 100.438627 
L 777.6 100.438627 
" clip-path="url(#p90e151c80f)" style="fill: none; stroke: #b0b0b0; stroke-width: 0.8; stroke-linecap: square"/>
     </g>
     <g id="line2d_22">
      <g>
       <use xlink:href="#m561174d004" x="108" y="100.438627" style="stroke: #000000; stroke-width: 0.8"/>
      </g>
     </g>
     <g id="text_12">
      <!-- 4 -->
      <g transform="translate(94.6375 104.237846) scale(0.1 -0.1)">
       <use xlink:href="#DejaVuSans-34"/>
      </g>
     </g>
    </g>
    <g id="text_13">
     <!-- loss -->
     <g transform="translate(88.557812 227.817812) rotate(-90) scale(0.1 -0.1)">
      <defs>
       <path id="DejaVuSans-6c" d="M 603 4863 
L 1178 4863 
L 1178 0 
L 603 0 
L 603 4863 
z
" transform="scale(0.015625)"/>
       <path id="DejaVuSans-73" d="M 2834 3397 
L 2834 2853 
Q 2591 2978 2328 3040 
Q 2066 3103 1784 3103 
Q 1356 3103 1142 2972 
Q 928 2841 928 2578 
Q 928 2378 1081 2264 
Q 1234 2150 1697 2047 
L 1894 2003 
Q 2506 1872 2764 1633 
Q 3022 1394 3022 966 
Q 3022 478 2636 193 
Q 2250 -91 1575 -91 
Q 1294 -91 989 -36 
Q 684 19 347 128 
L 347 722 
Q 666 556 975 473 
Q 1284 391 1588 391 
Q 1994 391 2212 530 
Q 2431 669 2431 922 
Q 2431 1156 2273 1281 
Q 2116 1406 1581 1522 
L 1381 1569 
Q 847 1681 609 1914 
Q 372 2147 372 2553 
Q 372 3047 722 3315 
Q 1072 3584 1716 3584 
Q 2034 3584 2315 3537 
Q 2597 3491 2834 3397 
z
" transform="scale(0.015625)"/>
      </defs>
      <use xlink:href="#DejaVuSans-6c"/>
      <use xlink:href="#DejaVuSans-6f" x="27.783203"/>
      <use xlink:href="#DejaVuSans-73" x="88.964844"/>
      <use xlink:href="#DejaVuSans-73" x="141.064453"/>
     </g>
    </g>
   </g>
   <g id="line2d_23">
    <path d="M 138.436364 66.96 
L 144.179074 307.257652 
L 149.921784 318.450909 
L 155.664494 318.585768 
L 161.407204 321.431282 
L 167.149914 323.717134 
L 172.892624 323.804792 
L 178.635334 328.814786 
L 184.378045 331.309669 
L 190.120755 330.514004 
L 195.863465 334.303528 
L 201.606175 335.32171 
L 207.348885 336.717495 
L 213.091595 335.942059 
L 218.834305 337.526647 
L 224.577015 337.776135 
L 230.319726 340.385647 
L 236.062436 341.49823 
L 241.805146 343.285105 
L 247.547856 344.438146 
L 253.290566 346.825141 
L 259.033276 348.06584 
L 264.775986 349.994317 
L 270.518696 350.358435 
L 276.261407 350.830439 
L 282.004117 351.349645 
L 287.746827 352.401541 
L 293.489537 353.493895 
L 299.232247 353.622011 
L 304.974957 354.053558 
L 310.717667 355.193113 
L 316.460377 355.011054 
L 322.203087 355.617917 
L 327.945798 357.532908 
L 333.688508 358.497146 
L 339.431218 359.171439 
L 345.173928 359.083781 
L 350.916638 359.468128 
L 356.659348 360.803227 
L 362.402058 360.681854 
L 368.144768 360.803227 
L 373.887479 360.796484 
L 379.630189 360.830199 
L 385.372899 360.742541 
L 391.115609 361.727008 
L 396.858319 362.070897 
L 402.601029 362.084383 
L 408.343739 361.619121 
L 414.086449 362.205756 
L 419.82916 362.347357 
L 425.57187 363.770114 
L 431.31458 364.430921 
L 437.05729 365.334473 
L 442.8 365.287273 
L 448.54271 366.406598 
L 454.28542 366.258254 
L 460.02813 366.440313 
L 465.77084 367.283179 
L 471.513551 367.640554 
L 477.256261 367.532667 
L 482.998971 367.809127 
L 488.741681 367.58661 
L 494.484391 367.337122 
L 500.227101 367.559639 
L 505.969811 368.294618 
L 511.712521 368.780108 
L 517.455232 368.746394 
L 523.197942 368.834052 
L 528.940652 368.995882 
L 534.683362 369.043082 
L 540.426072 368.962167 
L 546.168782 368.914967 
L 551.911492 369.117255 
L 557.654202 369.022854 
L 563.396913 369.070054 
L 569.139623 369.049825 
L 574.882333 369.144226 
L 580.625043 369.130741 
L 586.367753 369.002625 
L 592.110463 369.258856 
L 597.853173 369.272342 
L 603.595883 369.130741 
L 609.338593 369.150969 
L 615.081304 369.150969 
L 620.824014 369.265599 
L 626.566724 369.252113 
L 632.309434 369.211656 
L 638.052144 369.204913 
L 643.794854 369.339771 
L 649.537564 369.144226 
L 655.280274 368.995882 
L 661.022985 369.08354 
L 666.765695 369.171198 
L 672.508405 369.191427 
L 678.251115 369.272342 
L 683.993825 369.110512 
L 689.736535 369.36 
L 695.479245 369.285828 
L 701.221955 369.346514 
L 706.964666 369.076797 
L 712.707376 369.137483 
L 718.450086 369.177941 
L 724.192796 369.150969 
L 729.935506 369.319542 
L 735.678216 369.279085 
L 741.420926 369.177941 
L 747.163636 369.238627 
" clip-path="url(#p90e151c80f)" style="fill: none; stroke: #0000ff; stroke-width: 1.5; stroke-linecap: square"/>
    <defs>
     <path id="mb2cc33854d" d="M 0 3 
C 0.795609 3 1.55874 2.683901 2.12132 2.12132 
C 2.683901 1.55874 3 0.795609 3 0 
C 3 -0.795609 2.683901 -1.55874 2.12132 -2.12132 
C 1.55874 -2.683901 0.795609 -3 0 -3 
C -0.795609 -3 -1.55874 -2.683901 -2.12132 -2.12132 
C -2.683901 -1.55874 -3 -0.795609 -3 0 
C -3 0.795609 -2.683901 1.55874 -2.12132 2.12132 
C -1.55874 2.683901 -0.795609 3 0 3 
z
" style="stroke: #0000ff"/>
    </defs>
    <g clip-path="url(#p90e151c80f)">
     <use xlink:href="#mb2cc33854d" x="138.436364" y="66.96" style="fill: #0000ff; stroke: #0000ff"/>
     <use xlink:href="#mb2cc33854d" x="144.179074" y="307.257652" style="fill: #0000ff; stroke: #0000ff"/>
     <use xlink:href="#mb2cc33854d" x="149.921784" y="318.450909" style="fill: #0000ff; stroke: #0000ff"/>
     <use xlink:href="#mb2cc33854d" x="155.664494" y="318.585768" style="fill: #0000ff; stroke: #0000ff"/>
     <use xlink:href="#mb2cc33854d" x="161.407204" y="321.431282" style="fill: #0000ff; stroke: #0000ff"/>
     <use xlink:href="#mb2cc33854d" x="167.149914" y="323.717134" style="fill: #0000ff; stroke: #0000ff"/>
     <use xlink:href="#mb2cc33854d" x="172.892624" y="323.804792" style="fill: #0000ff; stroke: #0000ff"/>
     <use xlink:href="#mb2cc33854d" x="178.635334" y="328.814786" style="fill: #0000ff; stroke: #0000ff"/>
     <use xlink:href="#mb2cc33854d" x="184.378045" y="331.309669" style="fill: #0000ff; stroke: #0000ff"/>
     <use xlink:href="#mb2cc33854d" x="190.120755" y="330.514004" style="fill: #0000ff; stroke: #0000ff"/>
     <use xlink:href="#mb2cc33854d" x="195.863465" y="334.303528" style="fill: #0000ff; stroke: #0000ff"/>
     <use xlink:href="#mb2cc33854d" x="201.606175" y="335.32171" style="fill: #0000ff; stroke: #0000ff"/>
     <use xlink:href="#mb2cc33854d" x="207.348885" y="336.717495" style="fill: #0000ff; stroke: #0000ff"/>
     <use xlink:href="#mb2cc33854d" x="213.091595" y="335.942059" style="fill: #0000ff; stroke: #0000ff"/>
     <use xlink:href="#mb2cc33854d" x="218.834305" y="337.526647" style="fill: #0000ff; stroke: #0000ff"/>
     <use xlink:href="#mb2cc33854d" x="224.577015" y="337.776135" style="fill: #0000ff; stroke: #0000ff"/>
     <use xlink:href="#mb2cc33854d" x="230.319726" y="340.385647" style="fill: #0000ff; stroke: #0000ff"/>
     <use xlink:href="#mb2cc33854d" x="236.062436" y="341.49823" style="fill: #0000ff; stroke: #0000ff"/>
     <use xlink:href="#mb2cc33854d" x="241.805146" y="343.285105" style="fill: #0000ff; stroke: #0000ff"/>
     <use xlink:href="#mb2cc33854d" x="247.547856" y="344.438146" style="fill: #0000ff; stroke: #0000ff"/>
     <use xlink:href="#mb2cc33854d" x="253.290566" y="346.825141" style="fill: #0000ff; stroke: #0000ff"/>
     <use xlink:href="#mb2cc33854d" x="259.033276" y="348.06584" style="fill: #0000ff; stroke: #0000ff"/>
     <use xlink:href="#mb2cc33854d" x="264.775986" y="349.994317" style="fill: #0000ff; stroke: #0000ff"/>
     <use xlink:href="#mb2cc33854d" x="270.518696" y="350.358435" style="fill: #0000ff; stroke: #0000ff"/>
     <use xlink:href="#mb2cc33854d" x="276.261407" y="350.830439" style="fill: #0000ff; stroke: #0000ff"/>
     <use xlink:href="#mb2cc33854d" x="282.004117" y="351.349645" style="fill: #0000ff; stroke: #0000ff"/>
     <use xlink:href="#mb2cc33854d" x="287.746827" y="352.401541" style="fill: #0000ff; stroke: #0000ff"/>
     <use xlink:href="#mb2cc33854d" x="293.489537" y="353.493895" style="fill: #0000ff; stroke: #0000ff"/>
     <use xlink:href="#mb2cc33854d" x="299.232247" y="353.622011" style="fill: #0000ff; stroke: #0000ff"/>
     <use xlink:href="#mb2cc33854d" x="304.974957" y="354.053558" style="fill: #0000ff; stroke: #0000ff"/>
     <use xlink:href="#mb2cc33854d" x="310.717667" y="355.193113" style="fill: #0000ff; stroke: #0000ff"/>
     <use xlink:href="#mb2cc33854d" x="316.460377" y="355.011054" style="fill: #0000ff; stroke: #0000ff"/>
     <use xlink:href="#mb2cc33854d" x="322.203087" y="355.617917" style="fill: #0000ff; stroke: #0000ff"/>
     <use xlink:href="#mb2cc33854d" x="327.945798" y="357.532908" style="fill: #0000ff; stroke: #0000ff"/>
     <use xlink:href="#mb2cc33854d" x="333.688508" y="358.497146" style="fill: #0000ff; stroke: #0000ff"/>
     <use xlink:href="#mb2cc33854d" x="339.431218" y="359.171439" style="fill: #0000ff; stroke: #0000ff"/>
     <use xlink:href="#mb2cc33854d" x="345.173928" y="359.083781" style="fill: #0000ff; stroke: #0000ff"/>
     <use xlink:href="#mb2cc33854d" x="350.916638" y="359.468128" style="fill: #0000ff; stroke: #0000ff"/>
     <use xlink:href="#mb2cc33854d" x="356.659348" y="360.803227" style="fill: #0000ff; stroke: #0000ff"/>
     <use xlink:href="#mb2cc33854d" x="362.402058" y="360.681854" style="fill: #0000ff; stroke: #0000ff"/>
     <use xlink:href="#mb2cc33854d" x="368.144768" y="360.803227" style="fill: #0000ff; stroke: #0000ff"/>
     <use xlink:href="#mb2cc33854d" x="373.887479" y="360.796484" style="fill: #0000ff; stroke: #0000ff"/>
     <use xlink:href="#mb2cc33854d" x="379.630189" y="360.830199" style="fill: #0000ff; stroke: #0000ff"/>
     <use xlink:href="#mb2cc33854d" x="385.372899" y="360.742541" style="fill: #0000ff; stroke: #0000ff"/>
     <use xlink:href="#mb2cc33854d" x="391.115609" y="361.727008" style="fill: #0000ff; stroke: #0000ff"/>
     <use xlink:href="#mb2cc33854d" x="396.858319" y="362.070897" style="fill: #0000ff; stroke: #0000ff"/>
     <use xlink:href="#mb2cc33854d" x="402.601029" y="362.084383" style="fill: #0000ff; stroke: #0000ff"/>
     <use xlink:href="#mb2cc33854d" x="408.343739" y="361.619121" style="fill: #0000ff; stroke: #0000ff"/>
     <use xlink:href="#mb2cc33854d" x="414.086449" y="362.205756" style="fill: #0000ff; stroke: #0000ff"/>
     <use xlink:href="#mb2cc33854d" x="419.82916" y="362.347357" style="fill: #0000ff; stroke: #0000ff"/>
     <use xlink:href="#mb2cc33854d" x="425.57187" y="363.770114" style="fill: #0000ff; stroke: #0000ff"/>
     <use xlink:href="#mb2cc33854d" x="431.31458" y="364.430921" style="fill: #0000ff; stroke: #0000ff"/>
     <use xlink:href="#mb2cc33854d" x="437.05729" y="365.334473" style="fill: #0000ff; stroke: #0000ff"/>
     <use xlink:href="#mb2cc33854d" x="442.8" y="365.287273" style="fill: #0000ff; stroke: #0000ff"/>
     <use xlink:href="#mb2cc33854d" x="448.54271" y="366.406598" style="fill: #0000ff; stroke: #0000ff"/>
     <use xlink:href="#mb2cc33854d" x="454.28542" y="366.258254" style="fill: #0000ff; stroke: #0000ff"/>
     <use xlink:href="#mb2cc33854d" x="460.02813" y="366.440313" style="fill: #0000ff; stroke: #0000ff"/>
     <use xlink:href="#mb2cc33854d" x="465.77084" y="367.283179" style="fill: #0000ff; stroke: #0000ff"/>
     <use xlink:href="#mb2cc33854d" x="471.513551" y="367.640554" style="fill: #0000ff; stroke: #0000ff"/>
     <use xlink:href="#mb2cc33854d" x="477.256261" y="367.532667" style="fill: #0000ff; stroke: #0000ff"/>
     <use xlink:href="#mb2cc33854d" x="482.998971" y="367.809127" style="fill: #0000ff; stroke: #0000ff"/>
     <use xlink:href="#mb2cc33854d" x="488.741681" y="367.58661" style="fill: #0000ff; stroke: #0000ff"/>
     <use xlink:href="#mb2cc33854d" x="494.484391" y="367.337122" style="fill: #0000ff; stroke: #0000ff"/>
     <use xlink:href="#mb2cc33854d" x="500.227101" y="367.559639" style="fill: #0000ff; stroke: #0000ff"/>
     <use xlink:href="#mb2cc33854d" x="505.969811" y="368.294618" style="fill: #0000ff; stroke: #0000ff"/>
     <use xlink:href="#mb2cc33854d" x="511.712521" y="368.780108" style="fill: #0000ff; stroke: #0000ff"/>
     <use xlink:href="#mb2cc33854d" x="517.455232" y="368.746394" style="fill: #0000ff; stroke: #0000ff"/>
     <use xlink:href="#mb2cc33854d" x="523.197942" y="368.834052" style="fill: #0000ff; stroke: #0000ff"/>
     <use xlink:href="#mb2cc33854d" x="528.940652" y="368.995882" style="fill: #0000ff; stroke: #0000ff"/>
     <use xlink:href="#mb2cc33854d" x="534.683362" y="369.043082" style="fill: #0000ff; stroke: #0000ff"/>
     <use xlink:href="#mb2cc33854d" x="540.426072" y="368.962167" style="fill: #0000ff; stroke: #0000ff"/>
     <use xlink:href="#mb2cc33854d" x="546.168782" y="368.914967" style="fill: #0000ff; stroke: #0000ff"/>
     <use xlink:href="#mb2cc33854d" x="551.911492" y="369.117255" style="fill: #0000ff; stroke: #0000ff"/>
     <use xlink:href="#mb2cc33854d" x="557.654202" y="369.022854" style="fill: #0000ff; stroke: #0000ff"/>
     <use xlink:href="#mb2cc33854d" x="563.396913" y="369.070054" style="fill: #0000ff; stroke: #0000ff"/>
     <use xlink:href="#mb2cc33854d" x="569.139623" y="369.049825" style="fill: #0000ff; stroke: #0000ff"/>
     <use xlink:href="#mb2cc33854d" x="574.882333" y="369.144226" style="fill: #0000ff; stroke: #0000ff"/>
     <use xlink:href="#mb2cc33854d" x="580.625043" y="369.130741" style="fill: #0000ff; stroke: #0000ff"/>
     <use xlink:href="#mb2cc33854d" x="586.367753" y="369.002625" style="fill: #0000ff; stroke: #0000ff"/>
     <use xlink:href="#mb2cc33854d" x="592.110463" y="369.258856" style="fill: #0000ff; stroke: #0000ff"/>
     <use xlink:href="#mb2cc33854d" x="597.853173" y="369.272342" style="fill: #0000ff; stroke: #0000ff"/>
     <use xlink:href="#mb2cc33854d" x="603.595883" y="369.130741" style="fill: #0000ff; stroke: #0000ff"/>
     <use xlink:href="#mb2cc33854d" x="609.338593" y="369.150969" style="fill: #0000ff; stroke: #0000ff"/>
     <use xlink:href="#mb2cc33854d" x="615.081304" y="369.150969" style="fill: #0000ff; stroke: #0000ff"/>
     <use xlink:href="#mb2cc33854d" x="620.824014" y="369.265599" style="fill: #0000ff; stroke: #0000ff"/>
     <use xlink:href="#mb2cc33854d" x="626.566724" y="369.252113" style="fill: #0000ff; stroke: #0000ff"/>
     <use xlink:href="#mb2cc33854d" x="632.309434" y="369.211656" style="fill: #0000ff; stroke: #0000ff"/>
     <use xlink:href="#mb2cc33854d" x="638.052144" y="369.204913" style="fill: #0000ff; stroke: #0000ff"/>
     <use xlink:href="#mb2cc33854d" x="643.794854" y="369.339771" style="fill: #0000ff; stroke: #0000ff"/>
     <use xlink:href="#mb2cc33854d" x="649.537564" y="369.144226" style="fill: #0000ff; stroke: #0000ff"/>
     <use xlink:href="#mb2cc33854d" x="655.280274" y="368.995882" style="fill: #0000ff; stroke: #0000ff"/>
     <use xlink:href="#mb2cc33854d" x="661.022985" y="369.08354" style="fill: #0000ff; stroke: #0000ff"/>
     <use xlink:href="#mb2cc33854d" x="666.765695" y="369.171198" style="fill: #0000ff; stroke: #0000ff"/>
     <use xlink:href="#mb2cc33854d" x="672.508405" y="369.191427" style="fill: #0000ff; stroke: #0000ff"/>
     <use xlink:href="#mb2cc33854d" x="678.251115" y="369.272342" style="fill: #0000ff; stroke: #0000ff"/>
     <use xlink:href="#mb2cc33854d" x="683.993825" y="369.110512" style="fill: #0000ff; stroke: #0000ff"/>
     <use xlink:href="#mb2cc33854d" x="689.736535" y="369.36" style="fill: #0000ff; stroke: #0000ff"/>
     <use xlink:href="#mb2cc33854d" x="695.479245" y="369.285828" style="fill: #0000ff; stroke: #0000ff"/>
     <use xlink:href="#mb2cc33854d" x="701.221955" y="369.346514" style="fill: #0000ff; stroke: #0000ff"/>
     <use xlink:href="#mb2cc33854d" x="706.964666" y="369.076797" style="fill: #0000ff; stroke: #0000ff"/>
     <use xlink:href="#mb2cc33854d" x="712.707376" y="369.137483" style="fill: #0000ff; stroke: #0000ff"/>
     <use xlink:href="#mb2cc33854d" x="718.450086" y="369.177941" style="fill: #0000ff; stroke: #0000ff"/>
     <use xlink:href="#mb2cc33854d" x="724.192796" y="369.150969" style="fill: #0000ff; stroke: #0000ff"/>
     <use xlink:href="#mb2cc33854d" x="729.935506" y="369.319542" style="fill: #0000ff; stroke: #0000ff"/>
     <use xlink:href="#mb2cc33854d" x="735.678216" y="369.279085" style="fill: #0000ff; stroke: #0000ff"/>
     <use xlink:href="#mb2cc33854d" x="741.420926" y="369.177941" style="fill: #0000ff; stroke: #0000ff"/>
     <use xlink:href="#mb2cc33854d" x="747.163636" y="369.238627" style="fill: #0000ff; stroke: #0000ff"/>
    </g>
   </g>
   <g id="patch_3">
    <path d="M 108 384.48 
L 108 51.84 
" style="fill: none; stroke: #000000; stroke-width: 0.8; stroke-linejoin: miter; stroke-linecap: square"/>
   </g>
   <g id="patch_4">
    <path d="M 777.6 384.48 
L 777.6 51.84 
" style="fill: none; stroke: #000000; stroke-width: 0.8; stroke-linejoin: miter; stroke-linecap: square"/>
   </g>
   <g id="patch_5">
    <path d="M 108 384.48 
L 777.6 384.48 
" style="fill: none; stroke: #000000; stroke-width: 0.8; stroke-linejoin: miter; stroke-linecap: square"/>
   </g>
   <g id="patch_6">
    <path d="M 108 51.84 
L 777.6 51.84 
" style="fill: none; stroke: #000000; stroke-width: 0.8; stroke-linejoin: miter; stroke-linecap: square"/>
   </g>
   <g id="text_14">
    <!-- Loss per Epoch -->
    <g transform="translate(397.485 45.84) scale(0.12 -0.12)">
     <defs>
      <path id="DejaVuSans-4c" d="M 628 4666 
L 1259 4666 
L 1259 531 
L 3531 531 
L 3531 0 
L 628 0 
L 628 4666 
z
" transform="scale(0.015625)"/>
      <path id="DejaVuSans-20" transform="scale(0.015625)"/>
      <path id="DejaVuSans-65" d="M 3597 1894 
L 3597 1613 
L 953 1613 
Q 991 1019 1311 708 
Q 1631 397 2203 397 
Q 2534 397 2845 478 
Q 3156 559 3463 722 
L 3463 178 
Q 3153 47 2828 -22 
Q 2503 -91 2169 -91 
Q 1331 -91 842 396 
Q 353 884 353 1716 
Q 353 2575 817 3079 
Q 1281 3584 2069 3584 
Q 2775 3584 3186 3129 
Q 3597 2675 3597 1894 
z
M 3022 2063 
Q 3016 2534 2758 2815 
Q 2500 3097 2075 3097 
Q 1594 3097 1305 2825 
Q 1016 2553 972 2059 
L 3022 2063 
z
" transform="scale(0.015625)"/>
      <path id="DejaVuSans-72" d="M 2631 2963 
Q 2534 3019 2420 3045 
Q 2306 3072 2169 3072 
Q 1681 3072 1420 2755 
Q 1159 2438 1159 1844 
L 1159 0 
L 581 0 
L 581 3500 
L 1159 3500 
L 1159 2956 
Q 1341 3275 1631 3429 
Q 1922 3584 2338 3584 
Q 2397 3584 2469 3576 
Q 2541 3569 2628 3553 
L 2631 2963 
z
" transform="scale(0.015625)"/>
     </defs>
     <use xlink:href="#DejaVuSans-4c"/>
     <use xlink:href="#DejaVuSans-6f" x="53.962891"/>
     <use xlink:href="#DejaVuSans-73" x="115.144531"/>
     <use xlink:href="#DejaVuSans-73" x="167.244141"/>
     <use xlink:href="#DejaVuSans-20" x="219.34375"/>
     <use xlink:href="#DejaVuSans-70" x="251.130859"/>
     <use xlink:href="#DejaVuSans-65" x="314.607422"/>
     <use xlink:href="#DejaVuSans-72" x="376.130859"/>
     <use xlink:href="#DejaVuSans-20" x="417.244141"/>
     <use xlink:href="#DejaVuSans-45" x="449.03125"/>
     <use xlink:href="#DejaVuSans-70" x="512.214844"/>
     <use xlink:href="#DejaVuSans-6f" x="575.691406"/>
     <use xlink:href="#DejaVuSans-63" x="636.873047"/>
     <use xlink:href="#DejaVuSans-68" x="691.853516"/>
    </g>
   </g>
  </g>
 </g>
 <defs>
  <clipPath id="p90e151c80f">
   <rect x="108" y="51.84" width="669.6" height="332.64"/>
  </clipPath>
 </defs>
</svg>
