<?xml version="1.0" encoding="utf-8" standalone="no"?>
<!DOCTYPE svg PUBLIC "-//W3C//DTD SVG 1.1//EN"
  "http://www.w3.org/Graphics/SVG/1.1/DTD/svg11.dtd">
<svg xmlns:xlink="http://www.w3.org/1999/xlink" width="864pt" height="432pt" viewBox="0 0 864 432" xmlns="http://www.w3.org/2000/svg" version="1.1">
 <metadata>
  <rdf:RDF xmlns:dc="http://purl.org/dc/elements/1.1/" xmlns:cc="http://creativecommons.org/ns#" xmlns:rdf="http://www.w3.org/1999/02/22-rdf-syntax-ns#">
   <cc:Work>
    <dc:type rdf:resource="http://purl.org/dc/dcmitype/StillImage"/>
    <dc:date>2024-09-01T11:58:38.753832</dc:date>
    <dc:format>image/svg+xml</dc:format>
    <dc:creator>
     <cc:Agent>
      <dc:title>Matplotlib v3.8.4, https://matplotlib.org/</dc:title>
     </cc:Agent>
    </dc:creator>
   </cc:Work>
  </rdf:RDF>
 </metadata>
 <defs>
  <style type="text/css">*{stroke-linejoin: round; stroke-linecap: butt}</style>
 </defs>
 <g id="figure_1">
  <g id="patch_1">
   <path d="M 0 432 
L 864 432 
L 864 0 
L 0 0 
z
" style="fill: #ffffff"/>
  </g>
  <g id="axes_1">
   <g id="patch_2">
    <path d="M 108 384.48 
L 777.6 384.48 
L 777.6 51.84 
L 108 51.84 
z
" style="fill: #ffffff"/>
   </g>
   <g id="matplotlib.axis_1">
    <g id="xtick_1">
     <g id="line2d_1">
      <path d="M 138.436364 384.48 
L 138.436364 51.84 
" clip-path="url(#p6b1ee4e1e1)" style="fill: none; stroke: #b0b0b0; stroke-width: 0.8; stroke-linecap: square"/>
     </g>
     <g id="line2d_2">
      <defs>
       <path id="m940e61f711" d="M 0 0 
L 0 3.5 
" style="stroke: #000000; stroke-width: 0.8"/>
      </defs>
      <g>
       <use xlink:href="#m940e61f711" x="138.436364" y="384.48" style="stroke: #000000; stroke-width: 0.8"/>
      </g>
     </g>
     <g id="text_1">
      <!-- 0 -->
      <g transform="translate(135.255114 399.078438) scale(0.1 -0.1)">
       <defs>
        <path id="DejaVuSans-30" d="M 2034 4250 
Q 1547 4250 1301 3770 
Q 1056 3291 1056 2328 
Q 1056 1369 1301 889 
Q 1547 409 2034 409 
Q 2525 409 2770 889 
Q 3016 1369 3016 2328 
Q 3016 3291 2770 3770 
Q 2525 4250 2034 4250 
z
M 2034 4750 
Q 2819 4750 3233 4129 
Q 3647 3509 3647 2328 
Q 3647 1150 3233 529 
Q 2819 -91 2034 -91 
Q 1250 -91 836 529 
Q 422 1150 422 2328 
Q 422 3509 836 4129 
Q 1250 4750 2034 4750 
z
" transform="scale(0.015625)"/>
       </defs>
       <use xlink:href="#DejaVuSans-30"/>
      </g>
     </g>
    </g>
    <g id="xtick_2">
     <g id="line2d_3">
      <path d="M 253.290566 384.48 
L 253.290566 51.84 
" clip-path="url(#p6b1ee4e1e1)" style="fill: none; stroke: #b0b0b0; stroke-width: 0.8; stroke-linecap: square"/>
     </g>
     <g id="line2d_4">
      <g>
       <use xlink:href="#m940e61f711" x="253.290566" y="384.48" style="stroke: #000000; stroke-width: 0.8"/>
      </g>
     </g>
     <g id="text_2">
      <!-- 20 -->
      <g transform="translate(246.928066 399.078438) scale(0.1 -0.1)">
       <defs>
        <path id="DejaVuSans-32" d="M 1228 531 
L 3431 531 
L 3431 0 
L 469 0 
L 469 531 
Q 828 903 1448 1529 
Q 2069 2156 2228 2338 
Q 2531 2678 2651 2914 
Q 2772 3150 2772 3378 
Q 2772 3750 2511 3984 
Q 2250 4219 1831 4219 
Q 1534 4219 1204 4116 
Q 875 4013 500 3803 
L 500 4441 
Q 881 4594 1212 4672 
Q 1544 4750 1819 4750 
Q 2544 4750 2975 4387 
Q 3406 4025 3406 3419 
Q 3406 3131 3298 2873 
Q 3191 2616 2906 2266 
Q 2828 2175 2409 1742 
Q 1991 1309 1228 531 
z
" transform="scale(0.015625)"/>
       </defs>
       <use xlink:href="#DejaVuSans-32"/>
       <use xlink:href="#DejaVuSans-30" x="63.623047"/>
      </g>
     </g>
    </g>
    <g id="xtick_3">
     <g id="line2d_5">
      <path d="M 368.144768 384.48 
L 368.144768 51.84 
" clip-path="url(#p6b1ee4e1e1)" style="fill: none; stroke: #b0b0b0; stroke-width: 0.8; stroke-linecap: square"/>
     </g>
     <g id="line2d_6">
      <g>
       <use xlink:href="#m940e61f711" x="368.144768" y="384.48" style="stroke: #000000; stroke-width: 0.8"/>
      </g>
     </g>
     <g id="text_3">
      <!-- 40 -->
      <g transform="translate(361.782268 399.078438) scale(0.1 -0.1)">
       <defs>
        <path id="DejaVuSans-34" d="M 2419 4116 
L 825 1625 
L 2419 1625 
L 2419 4116 
z
M 2253 4666 
L 3047 4666 
L 3047 1625 
L 3713 1625 
L 3713 1100 
L 3047 1100 
L 3047 0 
L 2419 0 
L 2419 1100 
L 313 1100 
L 313 1709 
L 2253 4666 
z
" transform="scale(0.015625)"/>
       </defs>
       <use xlink:href="#DejaVuSans-34"/>
       <use xlink:href="#DejaVuSans-30" x="63.623047"/>
      </g>
     </g>
    </g>
    <g id="xtick_4">
     <g id="line2d_7">
      <path d="M 482.998971 384.48 
L 482.998971 51.84 
" clip-path="url(#p6b1ee4e1e1)" style="fill: none; stroke: #b0b0b0; stroke-width: 0.8; stroke-linecap: square"/>
     </g>
     <g id="line2d_8">
      <g>
       <use xlink:href="#m940e61f711" x="482.998971" y="384.48" style="stroke: #000000; stroke-width: 0.8"/>
      </g>
     </g>
     <g id="text_4">
      <!-- 60 -->
      <g transform="translate(476.636471 399.078438) scale(0.1 -0.1)">
       <defs>
        <path id="DejaVuSans-36" d="M 2113 2584 
Q 1688 2584 1439 2293 
Q 1191 2003 1191 1497 
Q 1191 994 1439 701 
Q 1688 409 2113 409 
Q 2538 409 2786 701 
Q 3034 994 3034 1497 
Q 3034 2003 2786 2293 
Q 2538 2584 2113 2584 
z
M 3366 4563 
L 3366 3988 
Q 3128 4100 2886 4159 
Q 2644 4219 2406 4219 
Q 1781 4219 1451 3797 
Q 1122 3375 1075 2522 
Q 1259 2794 1537 2939 
Q 1816 3084 2150 3084 
Q 2853 3084 3261 2657 
Q 3669 2231 3669 1497 
Q 3669 778 3244 343 
Q 2819 -91 2113 -91 
Q 1303 -91 875 529 
Q 447 1150 447 2328 
Q 447 3434 972 4092 
Q 1497 4750 2381 4750 
Q 2619 4750 2861 4703 
Q 3103 4656 3366 4563 
z
" transform="scale(0.015625)"/>
       </defs>
       <use xlink:href="#DejaVuSans-36"/>
       <use xlink:href="#DejaVuSans-30" x="63.623047"/>
      </g>
     </g>
    </g>
    <g id="xtick_5">
     <g id="line2d_9">
      <path d="M 597.853173 384.48 
L 597.853173 51.84 
" clip-path="url(#p6b1ee4e1e1)" style="fill: none; stroke: #b0b0b0; stroke-width: 0.8; stroke-linecap: square"/>
     </g>
     <g id="line2d_10">
      <g>
       <use xlink:href="#m940e61f711" x="597.853173" y="384.48" style="stroke: #000000; stroke-width: 0.8"/>
      </g>
     </g>
     <g id="text_5">
      <!-- 80 -->
      <g transform="translate(591.490673 399.078438) scale(0.1 -0.1)">
       <defs>
        <path id="DejaVuSans-38" d="M 2034 2216 
Q 1584 2216 1326 1975 
Q 1069 1734 1069 1313 
Q 1069 891 1326 650 
Q 1584 409 2034 409 
Q 2484 409 2743 651 
Q 3003 894 3003 1313 
Q 3003 1734 2745 1975 
Q 2488 2216 2034 2216 
z
M 1403 2484 
Q 997 2584 770 2862 
Q 544 3141 544 3541 
Q 544 4100 942 4425 
Q 1341 4750 2034 4750 
Q 2731 4750 3128 4425 
Q 3525 4100 3525 3541 
Q 3525 3141 3298 2862 
Q 3072 2584 2669 2484 
Q 3125 2378 3379 2068 
Q 3634 1759 3634 1313 
Q 3634 634 3220 271 
Q 2806 -91 2034 -91 
Q 1263 -91 848 271 
Q 434 634 434 1313 
Q 434 1759 690 2068 
Q 947 2378 1403 2484 
z
M 1172 3481 
Q 1172 3119 1398 2916 
Q 1625 2713 2034 2713 
Q 2441 2713 2670 2916 
Q 2900 3119 2900 3481 
Q 2900 3844 2670 4047 
Q 2441 4250 2034 4250 
Q 1625 4250 1398 4047 
Q 1172 3844 1172 3481 
z
" transform="scale(0.015625)"/>
       </defs>
       <use xlink:href="#DejaVuSans-38"/>
       <use xlink:href="#DejaVuSans-30" x="63.623047"/>
      </g>
     </g>
    </g>
    <g id="xtick_6">
     <g id="line2d_11">
      <path d="M 712.707376 384.48 
L 712.707376 51.84 
" clip-path="url(#p6b1ee4e1e1)" style="fill: none; stroke: #b0b0b0; stroke-width: 0.8; stroke-linecap: square"/>
     </g>
     <g id="line2d_12">
      <g>
       <use xlink:href="#m940e61f711" x="712.707376" y="384.48" style="stroke: #000000; stroke-width: 0.8"/>
      </g>
     </g>
     <g id="text_6">
      <!-- 100 -->
      <g transform="translate(703.163626 399.078438) scale(0.1 -0.1)">
       <defs>
        <path id="DejaVuSans-31" d="M 794 531 
L 1825 531 
L 1825 4091 
L 703 3866 
L 703 4441 
L 1819 4666 
L 2450 4666 
L 2450 531 
L 3481 531 
L 3481 0 
L 794 0 
L 794 531 
z
" transform="scale(0.015625)"/>
       </defs>
       <use xlink:href="#DejaVuSans-31"/>
       <use xlink:href="#DejaVuSans-30" x="63.623047"/>
       <use xlink:href="#DejaVuSans-30" x="127.246094"/>
      </g>
     </g>
    </g>
    <g id="text_7">
     <!-- Epoch -->
     <g transform="translate(427.489062 412.756563) scale(0.1 -0.1)">
      <defs>
       <path id="DejaVuSans-45" d="M 628 4666 
L 3578 4666 
L 3578 4134 
L 1259 4134 
L 1259 2753 
L 3481 2753 
L 3481 2222 
L 1259 2222 
L 1259 531 
L 3634 531 
L 3634 0 
L 628 0 
L 628 4666 
z
" transform="scale(0.015625)"/>
       <path id="DejaVuSans-70" d="M 1159 525 
L 1159 -1331 
L 581 -1331 
L 581 3500 
L 1159 3500 
L 1159 2969 
Q 1341 3281 1617 3432 
Q 1894 3584 2278 3584 
Q 2916 3584 3314 3078 
Q 3713 2572 3713 1747 
Q 3713 922 3314 415 
Q 2916 -91 2278 -91 
Q 1894 -91 1617 61 
Q 1341 213 1159 525 
z
M 3116 1747 
Q 3116 2381 2855 2742 
Q 2594 3103 2138 3103 
Q 1681 3103 1420 2742 
Q 1159 2381 1159 1747 
Q 1159 1113 1420 752 
Q 1681 391 2138 391 
Q 2594 391 2855 752 
Q 3116 1113 3116 1747 
z
" transform="scale(0.015625)"/>
       <path id="DejaVuSans-6f" d="M 1959 3097 
Q 1497 3097 1228 2736 
Q 959 2375 959 1747 
Q 959 1119 1226 758 
Q 1494 397 1959 397 
Q 2419 397 2687 759 
Q 2956 1122 2956 1747 
Q 2956 2369 2687 2733 
Q 2419 3097 1959 3097 
z
M 1959 3584 
Q 2709 3584 3137 3096 
Q 3566 2609 3566 1747 
Q 3566 888 3137 398 
Q 2709 -91 1959 -91 
Q 1206 -91 779 398 
Q 353 888 353 1747 
Q 353 2609 779 3096 
Q 1206 3584 1959 3584 
z
" transform="scale(0.015625)"/>
       <path id="DejaVuSans-63" d="M 3122 3366 
L 3122 2828 
Q 2878 2963 2633 3030 
Q 2388 3097 2138 3097 
Q 1578 3097 1268 2742 
Q 959 2388 959 1747 
Q 959 1106 1268 751 
Q 1578 397 2138 397 
Q 2388 397 2633 464 
Q 2878 531 3122 666 
L 3122 134 
Q 2881 22 2623 -34 
Q 2366 -91 2075 -91 
Q 1284 -91 818 406 
Q 353 903 353 1747 
Q 353 2603 823 3093 
Q 1294 3584 2113 3584 
Q 2378 3584 2631 3529 
Q 2884 3475 3122 3366 
z
" transform="scale(0.015625)"/>
       <path id="DejaVuSans-68" d="M 3513 2113 
L 3513 0 
L 2938 0 
L 2938 2094 
Q 2938 2591 2744 2837 
Q 2550 3084 2163 3084 
Q 1697 3084 1428 2787 
Q 1159 2491 1159 1978 
L 1159 0 
L 581 0 
L 581 4863 
L 1159 4863 
L 1159 2956 
Q 1366 3272 1645 3428 
Q 1925 3584 2291 3584 
Q 2894 3584 3203 3211 
Q 3513 2838 3513 2113 
z
" transform="scale(0.015625)"/>
      </defs>
      <use xlink:href="#DejaVuSans-45"/>
      <use xlink:href="#DejaVuSans-70" x="63.183594"/>
      <use xlink:href="#DejaVuSans-6f" x="126.660156"/>
      <use xlink:href="#DejaVuSans-63" x="187.841797"/>
      <use xlink:href="#DejaVuSans-68" x="242.822266"/>
     </g>
    </g>
   </g>
   <g id="matplotlib.axis_2">
    <g id="ytick_1">
     <g id="line2d_13">
      <path d="M 108 359.471233 
L 777.6 359.471233 
" clip-path="url(#p6b1ee4e1e1)" style="fill: none; stroke: #b0b0b0; stroke-width: 0.8; stroke-linecap: square"/>
     </g>
     <g id="line2d_14">
      <defs>
       <path id="mb0db09fbe7" d="M 0 0 
L -3.5 0 
" style="stroke: #000000; stroke-width: 0.8"/>
      </defs>
      <g>
       <use xlink:href="#mb0db09fbe7" x="108" y="359.471233" style="stroke: #000000; stroke-width: 0.8"/>
      </g>
     </g>
     <g id="text_8">
      <!-- 0.55 -->
      <g transform="translate(78.734375 363.270452) scale(0.1 -0.1)">
       <defs>
        <path id="DejaVuSans-2e" d="M 684 794 
L 1344 794 
L 1344 0 
L 684 0 
L 684 794 
z
" transform="scale(0.015625)"/>
        <path id="DejaVuSans-35" d="M 691 4666 
L 3169 4666 
L 3169 4134 
L 1269 4134 
L 1269 2991 
Q 1406 3038 1543 3061 
Q 1681 3084 1819 3084 
Q 2600 3084 3056 2656 
Q 3513 2228 3513 1497 
Q 3513 744 3044 326 
Q 2575 -91 1722 -91 
Q 1428 -91 1123 -41 
Q 819 9 494 109 
L 494 744 
Q 775 591 1075 516 
Q 1375 441 1709 441 
Q 2250 441 2565 725 
Q 2881 1009 2881 1497 
Q 2881 1984 2565 2268 
Q 2250 2553 1709 2553 
Q 1456 2553 1204 2497 
Q 953 2441 691 2322 
L 691 4666 
z
" transform="scale(0.015625)"/>
       </defs>
       <use xlink:href="#DejaVuSans-30"/>
       <use xlink:href="#DejaVuSans-2e" x="63.623047"/>
       <use xlink:href="#DejaVuSans-35" x="95.410156"/>
       <use xlink:href="#DejaVuSans-35" x="159.033203"/>
      </g>
     </g>
    </g>
    <g id="ytick_2">
     <g id="line2d_15">
      <path d="M 108 321.727848 
L 777.6 321.727848 
" clip-path="url(#p6b1ee4e1e1)" style="fill: none; stroke: #b0b0b0; stroke-width: 0.8; stroke-linecap: square"/>
     </g>
     <g id="line2d_16">
      <g>
       <use xlink:href="#mb0db09fbe7" x="108" y="321.727848" style="stroke: #000000; stroke-width: 0.8"/>
      </g>
     </g>
     <g id="text_9">
      <!-- 0.60 -->
      <g transform="translate(78.734375 325.527067) scale(0.1 -0.1)">
       <use xlink:href="#DejaVuSans-30"/>
       <use xlink:href="#DejaVuSans-2e" x="63.623047"/>
       <use xlink:href="#DejaVuSans-36" x="95.410156"/>
       <use xlink:href="#DejaVuSans-30" x="159.033203"/>
      </g>
     </g>
    </g>
    <g id="ytick_3">
     <g id="line2d_17">
      <path d="M 108 283.984463 
L 777.6 283.984463 
" clip-path="url(#p6b1ee4e1e1)" style="fill: none; stroke: #b0b0b0; stroke-width: 0.8; stroke-linecap: square"/>
     </g>
     <g id="line2d_18">
      <g>
       <use xlink:href="#mb0db09fbe7" x="108" y="283.984463" style="stroke: #000000; stroke-width: 0.8"/>
      </g>
     </g>
     <g id="text_10">
      <!-- 0.65 -->
      <g transform="translate(78.734375 287.783682) scale(0.1 -0.1)">
       <use xlink:href="#DejaVuSans-30"/>
       <use xlink:href="#DejaVuSans-2e" x="63.623047"/>
       <use xlink:href="#DejaVuSans-36" x="95.410156"/>
       <use xlink:href="#DejaVuSans-35" x="159.033203"/>
      </g>
     </g>
    </g>
    <g id="ytick_4">
     <g id="line2d_19">
      <path d="M 108 246.241078 
L 777.6 246.241078 
" clip-path="url(#p6b1ee4e1e1)" style="fill: none; stroke: #b0b0b0; stroke-width: 0.8; stroke-linecap: square"/>
     </g>
     <g id="line2d_20">
      <g>
       <use xlink:href="#mb0db09fbe7" x="108" y="246.241078" style="stroke: #000000; stroke-width: 0.8"/>
      </g>
     </g>
     <g id="text_11">
      <!-- 0.70 -->
      <g transform="translate(78.734375 250.040297) scale(0.1 -0.1)">
       <defs>
        <path id="DejaVuSans-37" d="M 525 4666 
L 3525 4666 
L 3525 4397 
L 1831 0 
L 1172 0 
L 2766 4134 
L 525 4134 
L 525 4666 
z
" transform="scale(0.015625)"/>
       </defs>
       <use xlink:href="#DejaVuSans-30"/>
       <use xlink:href="#DejaVuSans-2e" x="63.623047"/>
       <use xlink:href="#DejaVuSans-37" x="95.410156"/>
       <use xlink:href="#DejaVuSans-30" x="159.033203"/>
      </g>
     </g>
    </g>
    <g id="ytick_5">
     <g id="line2d_21">
      <path d="M 108 208.497693 
L 777.6 208.497693 
" clip-path="url(#p6b1ee4e1e1)" style="fill: none; stroke: #b0b0b0; stroke-width: 0.8; stroke-linecap: square"/>
     </g>
     <g id="line2d_22">
      <g>
       <use xlink:href="#mb0db09fbe7" x="108" y="208.497693" style="stroke: #000000; stroke-width: 0.8"/>
      </g>
     </g>
     <g id="text_12">
      <!-- 0.75 -->
      <g transform="translate(78.734375 212.296912) scale(0.1 -0.1)">
       <use xlink:href="#DejaVuSans-30"/>
       <use xlink:href="#DejaVuSans-2e" x="63.623047"/>
       <use xlink:href="#DejaVuSans-37" x="95.410156"/>
       <use xlink:href="#DejaVuSans-35" x="159.033203"/>
      </g>
     </g>
    </g>
    <g id="ytick_6">
     <g id="line2d_23">
      <path d="M 108 170.754309 
L 777.6 170.754309 
" clip-path="url(#p6b1ee4e1e1)" style="fill: none; stroke: #b0b0b0; stroke-width: 0.8; stroke-linecap: square"/>
     </g>
     <g id="line2d_24">
      <g>
       <use xlink:href="#mb0db09fbe7" x="108" y="170.754309" style="stroke: #000000; stroke-width: 0.8"/>
      </g>
     </g>
     <g id="text_13">
      <!-- 0.80 -->
      <g transform="translate(78.734375 174.553527) scale(0.1 -0.1)">
       <use xlink:href="#DejaVuSans-30"/>
       <use xlink:href="#DejaVuSans-2e" x="63.623047"/>
       <use xlink:href="#DejaVuSans-38" x="95.410156"/>
       <use xlink:href="#DejaVuSans-30" x="159.033203"/>
      </g>
     </g>
    </g>
    <g id="ytick_7">
     <g id="line2d_25">
      <path d="M 108 133.010924 
L 777.6 133.010924 
" clip-path="url(#p6b1ee4e1e1)" style="fill: none; stroke: #b0b0b0; stroke-width: 0.8; stroke-linecap: square"/>
     </g>
     <g id="line2d_26">
      <g>
       <use xlink:href="#mb0db09fbe7" x="108" y="133.010924" style="stroke: #000000; stroke-width: 0.8"/>
      </g>
     </g>
     <g id="text_14">
      <!-- 0.85 -->
      <g transform="translate(78.734375 136.810142) scale(0.1 -0.1)">
       <use xlink:href="#DejaVuSans-30"/>
       <use xlink:href="#DejaVuSans-2e" x="63.623047"/>
       <use xlink:href="#DejaVuSans-38" x="95.410156"/>
       <use xlink:href="#DejaVuSans-35" x="159.033203"/>
      </g>
     </g>
    </g>
    <g id="ytick_8">
     <g id="line2d_27">
      <path d="M 108 95.267539 
L 777.6 95.267539 
" clip-path="url(#p6b1ee4e1e1)" style="fill: none; stroke: #b0b0b0; stroke-width: 0.8; stroke-linecap: square"/>
     </g>
     <g id="line2d_28">
      <g>
       <use xlink:href="#mb0db09fbe7" x="108" y="95.267539" style="stroke: #000000; stroke-width: 0.8"/>
      </g>
     </g>
     <g id="text_15">
      <!-- 0.90 -->
      <g transform="translate(78.734375 99.066757) scale(0.1 -0.1)">
       <defs>
        <path id="DejaVuSans-39" d="M 703 97 
L 703 672 
Q 941 559 1184 500 
Q 1428 441 1663 441 
Q 2288 441 2617 861 
Q 2947 1281 2994 2138 
Q 2813 1869 2534 1725 
Q 2256 1581 1919 1581 
Q 1219 1581 811 2004 
Q 403 2428 403 3163 
Q 403 3881 828 4315 
Q 1253 4750 1959 4750 
Q 2769 4750 3195 4129 
Q 3622 3509 3622 2328 
Q 3622 1225 3098 567 
Q 2575 -91 1691 -91 
Q 1453 -91 1209 -44 
Q 966 3 703 97 
z
M 1959 2075 
Q 2384 2075 2632 2365 
Q 2881 2656 2881 3163 
Q 2881 3666 2632 3958 
Q 2384 4250 1959 4250 
Q 1534 4250 1286 3958 
Q 1038 3666 1038 3163 
Q 1038 2656 1286 2365 
Q 1534 2075 1959 2075 
z
" transform="scale(0.015625)"/>
       </defs>
       <use xlink:href="#DejaVuSans-30"/>
       <use xlink:href="#DejaVuSans-2e" x="63.623047"/>
       <use xlink:href="#DejaVuSans-39" x="95.410156"/>
       <use xlink:href="#DejaVuSans-30" x="159.033203"/>
      </g>
     </g>
    </g>
    <g id="ytick_9">
     <g id="line2d_29">
      <path d="M 108 57.524154 
L 777.6 57.524154 
" clip-path="url(#p6b1ee4e1e1)" style="fill: none; stroke: #b0b0b0; stroke-width: 0.8; stroke-linecap: square"/>
     </g>
     <g id="line2d_30">
      <g>
       <use xlink:href="#mb0db09fbe7" x="108" y="57.524154" style="stroke: #000000; stroke-width: 0.8"/>
      </g>
     </g>
     <g id="text_16">
      <!-- 0.95 -->
      <g transform="translate(78.734375 61.323373) scale(0.1 -0.1)">
       <use xlink:href="#DejaVuSans-30"/>
       <use xlink:href="#DejaVuSans-2e" x="63.623047"/>
       <use xlink:href="#DejaVuSans-39" x="95.410156"/>
       <use xlink:href="#DejaVuSans-35" x="159.033203"/>
      </g>
     </g>
    </g>
    <g id="text_17">
     <!-- Recall -->
     <g transform="translate(72.654687 233.077187) rotate(-90) scale(0.1 -0.1)">
      <defs>
       <path id="DejaVuSans-52" d="M 2841 2188 
Q 3044 2119 3236 1894 
Q 3428 1669 3622 1275 
L 4263 0 
L 3584 0 
L 2988 1197 
Q 2756 1666 2539 1819 
Q 2322 1972 1947 1972 
L 1259 1972 
L 1259 0 
L 628 0 
L 628 4666 
L 2053 4666 
Q 2853 4666 3247 4331 
Q 3641 3997 3641 3322 
Q 3641 2881 3436 2590 
Q 3231 2300 2841 2188 
z
M 1259 4147 
L 1259 2491 
L 2053 2491 
Q 2509 2491 2742 2702 
Q 2975 2913 2975 3322 
Q 2975 3731 2742 3939 
Q 2509 4147 2053 4147 
L 1259 4147 
z
" transform="scale(0.015625)"/>
       <path id="DejaVuSans-65" d="M 3597 1894 
L 3597 1613 
L 953 1613 
Q 991 1019 1311 708 
Q 1631 397 2203 397 
Q 2534 397 2845 478 
Q 3156 559 3463 722 
L 3463 178 
Q 3153 47 2828 -22 
Q 2503 -91 2169 -91 
Q 1331 -91 842 396 
Q 353 884 353 1716 
Q 353 2575 817 3079 
Q 1281 3584 2069 3584 
Q 2775 3584 3186 3129 
Q 3597 2675 3597 1894 
z
M 3022 2063 
Q 3016 2534 2758 2815 
Q 2500 3097 2075 3097 
Q 1594 3097 1305 2825 
Q 1016 2553 972 2059 
L 3022 2063 
z
" transform="scale(0.015625)"/>
       <path id="DejaVuSans-61" d="M 2194 1759 
Q 1497 1759 1228 1600 
Q 959 1441 959 1056 
Q 959 750 1161 570 
Q 1363 391 1709 391 
Q 2188 391 2477 730 
Q 2766 1069 2766 1631 
L 2766 1759 
L 2194 1759 
z
M 3341 1997 
L 3341 0 
L 2766 0 
L 2766 531 
Q 2569 213 2275 61 
Q 1981 -91 1556 -91 
Q 1019 -91 701 211 
Q 384 513 384 1019 
Q 384 1609 779 1909 
Q 1175 2209 1959 2209 
L 2766 2209 
L 2766 2266 
Q 2766 2663 2505 2880 
Q 2244 3097 1772 3097 
Q 1472 3097 1187 3025 
Q 903 2953 641 2809 
L 641 3341 
Q 956 3463 1253 3523 
Q 1550 3584 1831 3584 
Q 2591 3584 2966 3190 
Q 3341 2797 3341 1997 
z
" transform="scale(0.015625)"/>
       <path id="DejaVuSans-6c" d="M 603 4863 
L 1178 4863 
L 1178 0 
L 603 0 
L 603 4863 
z
" transform="scale(0.015625)"/>
      </defs>
      <use xlink:href="#DejaVuSans-52"/>
      <use xlink:href="#DejaVuSans-65" x="64.982422"/>
      <use xlink:href="#DejaVuSans-63" x="126.505859"/>
      <use xlink:href="#DejaVuSans-61" x="181.486328"/>
      <use xlink:href="#DejaVuSans-6c" x="242.765625"/>
      <use xlink:href="#DejaVuSans-6c" x="270.548828"/>
     </g>
    </g>
   </g>
   <g id="line2d_31">
    <path d="M 138.436364 369.36 
L 144.179074 343.619011 
L 149.921784 221.330444 
L 155.664494 180.643075 
L 161.407204 242.844174 
L 167.149914 184.945821 
L 172.892624 225.63319 
L 178.635334 184.945821 
L 184.378045 161.318462 
L 190.120755 180.643075 
L 195.863465 197.778572 
L 201.606175 126.971982 
L 207.348885 169.923954 
L 213.091595 126.971982 
L 218.834305 167.734838 
L 224.577015 144.182966 
L 230.319726 139.88022 
L 236.062436 137.691103 
L 241.805146 146.296595 
L 247.547856 133.463844 
L 253.290566 116.252861 
L 259.033276 139.88022 
L 264.775986 126.971982 
L 270.518696 94.814618 
L 276.261407 86.284613 
L 282.004117 109.836485 
L 287.746827 133.463844 
L 293.489537 90.587359 
L 299.232247 92.700989 
L 304.974957 114.139231 
L 310.717667 133.463844 
L 316.460377 118.441977 
L 322.203087 114.139231 
L 327.945798 92.700989 
L 333.688508 109.836485 
L 339.431218 118.441977 
L 345.173928 92.700989 
L 350.916638 94.814618 
L 356.659348 109.836485 
L 362.402058 118.441977 
L 368.144768 97.003734 
L 373.887479 81.981867 
L 379.630189 90.587359 
L 385.372899 97.003734 
L 391.115609 92.700989 
L 396.858319 112.025602 
L 402.601029 81.981867 
L 408.343739 77.679121 
L 414.086449 97.003734 
L 419.82916 75.565492 
L 425.57187 99.117364 
L 431.31458 66.96 
L 437.05729 71.262746 
L 442.8 66.96 
L 448.54271 66.96 
L 454.28542 75.565492 
L 460.02813 66.96 
L 465.77084 66.96 
L 471.513551 71.262746 
L 477.256261 79.792751 
L 482.998971 66.96 
L 488.741681 66.96 
L 494.484391 66.96 
L 500.227101 88.398243 
L 505.969811 73.376375 
L 511.712521 69.07363 
L 517.455232 66.96 
L 523.197942 66.96 
L 528.940652 66.96 
L 534.683362 66.96 
L 540.426072 66.96 
L 546.168782 66.96 
L 551.911492 66.96 
L 557.654202 66.96 
L 563.396913 66.96 
L 569.139623 66.96 
L 574.882333 66.96 
L 580.625043 66.96 
L 586.367753 66.96 
L 592.110463 66.96 
L 597.853173 66.96 
L 603.595883 66.96 
L 609.338593 66.96 
L 615.081304 66.96 
L 620.824014 66.96 
L 626.566724 66.96 
L 632.309434 66.96 
L 638.052144 66.96 
L 643.794854 66.96 
L 649.537564 66.96 
L 655.280274 66.96 
L 661.022985 66.96 
L 666.765695 66.96 
L 672.508405 66.96 
L 678.251115 66.96 
L 683.993825 66.96 
L 689.736535 66.96 
L 695.479245 66.96 
L 701.221955 66.96 
L 706.964666 66.96 
L 712.707376 66.96 
L 718.450086 66.96 
L 724.192796 66.96 
L 729.935506 66.96 
L 735.678216 66.96 
L 741.420926 66.96 
L 747.163636 66.96 
" clip-path="url(#p6b1ee4e1e1)" style="fill: none; stroke: #0000ff; stroke-width: 1.5; stroke-linecap: square"/>
    <defs>
     <path id="ma03ae1c6dd" d="M 0 3 
C 0.795609 3 1.55874 2.683901 2.12132 2.12132 
C 2.683901 1.55874 3 0.795609 3 0 
C 3 -0.795609 2.683901 -1.55874 2.12132 -2.12132 
C 1.55874 -2.683901 0.795609 -3 0 -3 
C -0.795609 -3 -1.55874 -2.683901 -2.12132 -2.12132 
C -2.683901 -1.55874 -3 -0.795609 -3 0 
C -3 0.795609 -2.683901 1.55874 -2.12132 2.12132 
C -1.55874 2.683901 -0.795609 3 0 3 
z
" style="stroke: #0000ff"/>
    </defs>
    <g clip-path="url(#p6b1ee4e1e1)">
     <use xlink:href="#ma03ae1c6dd" x="138.436364" y="369.36" style="fill: #0000ff; stroke: #0000ff"/>
     <use xlink:href="#ma03ae1c6dd" x="144.179074" y="343.619011" style="fill: #0000ff; stroke: #0000ff"/>
     <use xlink:href="#ma03ae1c6dd" x="149.921784" y="221.330444" style="fill: #0000ff; stroke: #0000ff"/>
     <use xlink:href="#ma03ae1c6dd" x="155.664494" y="180.643075" style="fill: #0000ff; stroke: #0000ff"/>
     <use xlink:href="#ma03ae1c6dd" x="161.407204" y="242.844174" style="fill: #0000ff; stroke: #0000ff"/>
     <use xlink:href="#ma03ae1c6dd" x="167.149914" y="184.945821" style="fill: #0000ff; stroke: #0000ff"/>
     <use xlink:href="#ma03ae1c6dd" x="172.892624" y="225.63319" style="fill: #0000ff; stroke: #0000ff"/>
     <use xlink:href="#ma03ae1c6dd" x="178.635334" y="184.945821" style="fill: #0000ff; stroke: #0000ff"/>
     <use xlink:href="#ma03ae1c6dd" x="184.378045" y="161.318462" style="fill: #0000ff; stroke: #0000ff"/>
     <use xlink:href="#ma03ae1c6dd" x="190.120755" y="180.643075" style="fill: #0000ff; stroke: #0000ff"/>
     <use xlink:href="#ma03ae1c6dd" x="195.863465" y="197.778572" style="fill: #0000ff; stroke: #0000ff"/>
     <use xlink:href="#ma03ae1c6dd" x="201.606175" y="126.971982" style="fill: #0000ff; stroke: #0000ff"/>
     <use xlink:href="#ma03ae1c6dd" x="207.348885" y="169.923954" style="fill: #0000ff; stroke: #0000ff"/>
     <use xlink:href="#ma03ae1c6dd" x="213.091595" y="126.971982" style="fill: #0000ff; stroke: #0000ff"/>
     <use xlink:href="#ma03ae1c6dd" x="218.834305" y="167.734838" style="fill: #0000ff; stroke: #0000ff"/>
     <use xlink:href="#ma03ae1c6dd" x="224.577015" y="144.182966" style="fill: #0000ff; stroke: #0000ff"/>
     <use xlink:href="#ma03ae1c6dd" x="230.319726" y="139.88022" style="fill: #0000ff; stroke: #0000ff"/>
     <use xlink:href="#ma03ae1c6dd" x="236.062436" y="137.691103" style="fill: #0000ff; stroke: #0000ff"/>
     <use xlink:href="#ma03ae1c6dd" x="241.805146" y="146.296595" style="fill: #0000ff; stroke: #0000ff"/>
     <use xlink:href="#ma03ae1c6dd" x="247.547856" y="133.463844" style="fill: #0000ff; stroke: #0000ff"/>
     <use xlink:href="#ma03ae1c6dd" x="253.290566" y="116.252861" style="fill: #0000ff; stroke: #0000ff"/>
     <use xlink:href="#ma03ae1c6dd" x="259.033276" y="139.88022" style="fill: #0000ff; stroke: #0000ff"/>
     <use xlink:href="#ma03ae1c6dd" x="264.775986" y="126.971982" style="fill: #0000ff; stroke: #0000ff"/>
     <use xlink:href="#ma03ae1c6dd" x="270.518696" y="94.814618" style="fill: #0000ff; stroke: #0000ff"/>
     <use xlink:href="#ma03ae1c6dd" x="276.261407" y="86.284613" style="fill: #0000ff; stroke: #0000ff"/>
     <use xlink:href="#ma03ae1c6dd" x="282.004117" y="109.836485" style="fill: #0000ff; stroke: #0000ff"/>
     <use xlink:href="#ma03ae1c6dd" x="287.746827" y="133.463844" style="fill: #0000ff; stroke: #0000ff"/>
     <use xlink:href="#ma03ae1c6dd" x="293.489537" y="90.587359" style="fill: #0000ff; stroke: #0000ff"/>
     <use xlink:href="#ma03ae1c6dd" x="299.232247" y="92.700989" style="fill: #0000ff; stroke: #0000ff"/>
     <use xlink:href="#ma03ae1c6dd" x="304.974957" y="114.139231" style="fill: #0000ff; stroke: #0000ff"/>
     <use xlink:href="#ma03ae1c6dd" x="310.717667" y="133.463844" style="fill: #0000ff; stroke: #0000ff"/>
     <use xlink:href="#ma03ae1c6dd" x="316.460377" y="118.441977" style="fill: #0000ff; stroke: #0000ff"/>
     <use xlink:href="#ma03ae1c6dd" x="322.203087" y="114.139231" style="fill: #0000ff; stroke: #0000ff"/>
     <use xlink:href="#ma03ae1c6dd" x="327.945798" y="92.700989" style="fill: #0000ff; stroke: #0000ff"/>
     <use xlink:href="#ma03ae1c6dd" x="333.688508" y="109.836485" style="fill: #0000ff; stroke: #0000ff"/>
     <use xlink:href="#ma03ae1c6dd" x="339.431218" y="118.441977" style="fill: #0000ff; stroke: #0000ff"/>
     <use xlink:href="#ma03ae1c6dd" x="345.173928" y="92.700989" style="fill: #0000ff; stroke: #0000ff"/>
     <use xlink:href="#ma03ae1c6dd" x="350.916638" y="94.814618" style="fill: #0000ff; stroke: #0000ff"/>
     <use xlink:href="#ma03ae1c6dd" x="356.659348" y="109.836485" style="fill: #0000ff; stroke: #0000ff"/>
     <use xlink:href="#ma03ae1c6dd" x="362.402058" y="118.441977" style="fill: #0000ff; stroke: #0000ff"/>
     <use xlink:href="#ma03ae1c6dd" x="368.144768" y="97.003734" style="fill: #0000ff; stroke: #0000ff"/>
     <use xlink:href="#ma03ae1c6dd" x="373.887479" y="81.981867" style="fill: #0000ff; stroke: #0000ff"/>
     <use xlink:href="#ma03ae1c6dd" x="379.630189" y="90.587359" style="fill: #0000ff; stroke: #0000ff"/>
     <use xlink:href="#ma03ae1c6dd" x="385.372899" y="97.003734" style="fill: #0000ff; stroke: #0000ff"/>
     <use xlink:href="#ma03ae1c6dd" x="391.115609" y="92.700989" style="fill: #0000ff; stroke: #0000ff"/>
     <use xlink:href="#ma03ae1c6dd" x="396.858319" y="112.025602" style="fill: #0000ff; stroke: #0000ff"/>
     <use xlink:href="#ma03ae1c6dd" x="402.601029" y="81.981867" style="fill: #0000ff; stroke: #0000ff"/>
     <use xlink:href="#ma03ae1c6dd" x="408.343739" y="77.679121" style="fill: #0000ff; stroke: #0000ff"/>
     <use xlink:href="#ma03ae1c6dd" x="414.086449" y="97.003734" style="fill: #0000ff; stroke: #0000ff"/>
     <use xlink:href="#ma03ae1c6dd" x="419.82916" y="75.565492" style="fill: #0000ff; stroke: #0000ff"/>
     <use xlink:href="#ma03ae1c6dd" x="425.57187" y="99.117364" style="fill: #0000ff; stroke: #0000ff"/>
     <use xlink:href="#ma03ae1c6dd" x="431.31458" y="66.96" style="fill: #0000ff; stroke: #0000ff"/>
     <use xlink:href="#ma03ae1c6dd" x="437.05729" y="71.262746" style="fill: #0000ff; stroke: #0000ff"/>
     <use xlink:href="#ma03ae1c6dd" x="442.8" y="66.96" style="fill: #0000ff; stroke: #0000ff"/>
     <use xlink:href="#ma03ae1c6dd" x="448.54271" y="66.96" style="fill: #0000ff; stroke: #0000ff"/>
     <use xlink:href="#ma03ae1c6dd" x="454.28542" y="75.565492" style="fill: #0000ff; stroke: #0000ff"/>
     <use xlink:href="#ma03ae1c6dd" x="460.02813" y="66.96" style="fill: #0000ff; stroke: #0000ff"/>
     <use xlink:href="#ma03ae1c6dd" x="465.77084" y="66.96" style="fill: #0000ff; stroke: #0000ff"/>
     <use xlink:href="#ma03ae1c6dd" x="471.513551" y="71.262746" style="fill: #0000ff; stroke: #0000ff"/>
     <use xlink:href="#ma03ae1c6dd" x="477.256261" y="79.792751" style="fill: #0000ff; stroke: #0000ff"/>
     <use xlink:href="#ma03ae1c6dd" x="482.998971" y="66.96" style="fill: #0000ff; stroke: #0000ff"/>
     <use xlink:href="#ma03ae1c6dd" x="488.741681" y="66.96" style="fill: #0000ff; stroke: #0000ff"/>
     <use xlink:href="#ma03ae1c6dd" x="494.484391" y="66.96" style="fill: #0000ff; stroke: #0000ff"/>
     <use xlink:href="#ma03ae1c6dd" x="500.227101" y="88.398243" style="fill: #0000ff; stroke: #0000ff"/>
     <use xlink:href="#ma03ae1c6dd" x="505.969811" y="73.376375" style="fill: #0000ff; stroke: #0000ff"/>
     <use xlink:href="#ma03ae1c6dd" x="511.712521" y="69.07363" style="fill: #0000ff; stroke: #0000ff"/>
     <use xlink:href="#ma03ae1c6dd" x="517.455232" y="66.96" style="fill: #0000ff; stroke: #0000ff"/>
     <use xlink:href="#ma03ae1c6dd" x="523.197942" y="66.96" style="fill: #0000ff; stroke: #0000ff"/>
     <use xlink:href="#ma03ae1c6dd" x="528.940652" y="66.96" style="fill: #0000ff; stroke: #0000ff"/>
     <use xlink:href="#ma03ae1c6dd" x="534.683362" y="66.96" style="fill: #0000ff; stroke: #0000ff"/>
     <use xlink:href="#ma03ae1c6dd" x="540.426072" y="66.96" style="fill: #0000ff; stroke: #0000ff"/>
     <use xlink:href="#ma03ae1c6dd" x="546.168782" y="66.96" style="fill: #0000ff; stroke: #0000ff"/>
     <use xlink:href="#ma03ae1c6dd" x="551.911492" y="66.96" style="fill: #0000ff; stroke: #0000ff"/>
     <use xlink:href="#ma03ae1c6dd" x="557.654202" y="66.96" style="fill: #0000ff; stroke: #0000ff"/>
     <use xlink:href="#ma03ae1c6dd" x="563.396913" y="66.96" style="fill: #0000ff; stroke: #0000ff"/>
     <use xlink:href="#ma03ae1c6dd" x="569.139623" y="66.96" style="fill: #0000ff; stroke: #0000ff"/>
     <use xlink:href="#ma03ae1c6dd" x="574.882333" y="66.96" style="fill: #0000ff; stroke: #0000ff"/>
     <use xlink:href="#ma03ae1c6dd" x="580.625043" y="66.96" style="fill: #0000ff; stroke: #0000ff"/>
     <use xlink:href="#ma03ae1c6dd" x="586.367753" y="66.96" style="fill: #0000ff; stroke: #0000ff"/>
     <use xlink:href="#ma03ae1c6dd" x="592.110463" y="66.96" style="fill: #0000ff; stroke: #0000ff"/>
     <use xlink:href="#ma03ae1c6dd" x="597.853173" y="66.96" style="fill: #0000ff; stroke: #0000ff"/>
     <use xlink:href="#ma03ae1c6dd" x="603.595883" y="66.96" style="fill: #0000ff; stroke: #0000ff"/>
     <use xlink:href="#ma03ae1c6dd" x="609.338593" y="66.96" style="fill: #0000ff; stroke: #0000ff"/>
     <use xlink:href="#ma03ae1c6dd" x="615.081304" y="66.96" style="fill: #0000ff; stroke: #0000ff"/>
     <use xlink:href="#ma03ae1c6dd" x="620.824014" y="66.96" style="fill: #0000ff; stroke: #0000ff"/>
     <use xlink:href="#ma03ae1c6dd" x="626.566724" y="66.96" style="fill: #0000ff; stroke: #0000ff"/>
     <use xlink:href="#ma03ae1c6dd" x="632.309434" y="66.96" style="fill: #0000ff; stroke: #0000ff"/>
     <use xlink:href="#ma03ae1c6dd" x="638.052144" y="66.96" style="fill: #0000ff; stroke: #0000ff"/>
     <use xlink:href="#ma03ae1c6dd" x="643.794854" y="66.96" style="fill: #0000ff; stroke: #0000ff"/>
     <use xlink:href="#ma03ae1c6dd" x="649.537564" y="66.96" style="fill: #0000ff; stroke: #0000ff"/>
     <use xlink:href="#ma03ae1c6dd" x="655.280274" y="66.96" style="fill: #0000ff; stroke: #0000ff"/>
     <use xlink:href="#ma03ae1c6dd" x="661.022985" y="66.96" style="fill: #0000ff; stroke: #0000ff"/>
     <use xlink:href="#ma03ae1c6dd" x="666.765695" y="66.96" style="fill: #0000ff; stroke: #0000ff"/>
     <use xlink:href="#ma03ae1c6dd" x="672.508405" y="66.96" style="fill: #0000ff; stroke: #0000ff"/>
     <use xlink:href="#ma03ae1c6dd" x="678.251115" y="66.96" style="fill: #0000ff; stroke: #0000ff"/>
     <use xlink:href="#ma03ae1c6dd" x="683.993825" y="66.96" style="fill: #0000ff; stroke: #0000ff"/>
     <use xlink:href="#ma03ae1c6dd" x="689.736535" y="66.96" style="fill: #0000ff; stroke: #0000ff"/>
     <use xlink:href="#ma03ae1c6dd" x="695.479245" y="66.96" style="fill: #0000ff; stroke: #0000ff"/>
     <use xlink:href="#ma03ae1c6dd" x="701.221955" y="66.96" style="fill: #0000ff; stroke: #0000ff"/>
     <use xlink:href="#ma03ae1c6dd" x="706.964666" y="66.96" style="fill: #0000ff; stroke: #0000ff"/>
     <use xlink:href="#ma03ae1c6dd" x="712.707376" y="66.96" style="fill: #0000ff; stroke: #0000ff"/>
     <use xlink:href="#ma03ae1c6dd" x="718.450086" y="66.96" style="fill: #0000ff; stroke: #0000ff"/>
     <use xlink:href="#ma03ae1c6dd" x="724.192796" y="66.96" style="fill: #0000ff; stroke: #0000ff"/>
     <use xlink:href="#ma03ae1c6dd" x="729.935506" y="66.96" style="fill: #0000ff; stroke: #0000ff"/>
     <use xlink:href="#ma03ae1c6dd" x="735.678216" y="66.96" style="fill: #0000ff; stroke: #0000ff"/>
     <use xlink:href="#ma03ae1c6dd" x="741.420926" y="66.96" style="fill: #0000ff; stroke: #0000ff"/>
     <use xlink:href="#ma03ae1c6dd" x="747.163636" y="66.96" style="fill: #0000ff; stroke: #0000ff"/>
    </g>
   </g>
   <g id="patch_3">
    <path d="M 108 384.48 
L 108 51.84 
" style="fill: none; stroke: #000000; stroke-width: 0.8; stroke-linejoin: miter; stroke-linecap: square"/>
   </g>
   <g id="patch_4">
    <path d="M 777.6 384.48 
L 777.6 51.84 
" style="fill: none; stroke: #000000; stroke-width: 0.8; stroke-linejoin: miter; stroke-linecap: square"/>
   </g>
   <g id="patch_5">
    <path d="M 108 384.48 
L 777.6 384.48 
" style="fill: none; stroke: #000000; stroke-width: 0.8; stroke-linejoin: miter; stroke-linecap: square"/>
   </g>
   <g id="patch_6">
    <path d="M 108 51.84 
L 777.6 51.84 
" style="fill: none; stroke: #000000; stroke-width: 0.8; stroke-linejoin: miter; stroke-linecap: square"/>
   </g>
   <g id="text_18">
    <!-- Recall per Epoch -->
    <g transform="translate(392.745 45.84) scale(0.12 -0.12)">
     <defs>
      <path id="DejaVuSans-20" transform="scale(0.015625)"/>
      <path id="DejaVuSans-72" d="M 2631 2963 
Q 2534 3019 2420 3045 
Q 2306 3072 2169 3072 
Q 1681 3072 1420 2755 
Q 1159 2438 1159 1844 
L 1159 0 
L 581 0 
L 581 3500 
L 1159 3500 
L 1159 2956 
Q 1341 3275 1631 3429 
Q 1922 3584 2338 3584 
Q 2397 3584 2469 3576 
Q 2541 3569 2628 3553 
L 2631 2963 
z
" transform="scale(0.015625)"/>
     </defs>
     <use xlink:href="#DejaVuSans-52"/>
     <use xlink:href="#DejaVuSans-65" x="64.982422"/>
     <use xlink:href="#DejaVuSans-63" x="126.505859"/>
     <use xlink:href="#DejaVuSans-61" x="181.486328"/>
     <use xlink:href="#DejaVuSans-6c" x="242.765625"/>
     <use xlink:href="#DejaVuSans-6c" x="270.548828"/>
     <use xlink:href="#DejaVuSans-20" x="298.332031"/>
     <use xlink:href="#DejaVuSans-70" x="330.119141"/>
     <use xlink:href="#DejaVuSans-65" x="393.595703"/>
     <use xlink:href="#DejaVuSans-72" x="455.119141"/>
     <use xlink:href="#DejaVuSans-20" x="496.232422"/>
     <use xlink:href="#DejaVuSans-45" x="528.019531"/>
     <use xlink:href="#DejaVuSans-70" x="591.203125"/>
     <use xlink:href="#DejaVuSans-6f" x="654.679688"/>
     <use xlink:href="#DejaVuSans-63" x="715.861328"/>
     <use xlink:href="#DejaVuSans-68" x="770.841797"/>
    </g>
   </g>
  </g>
 </g>
 <defs>
  <clipPath id="p6b1ee4e1e1">
   <rect x="108" y="51.84" width="669.6" height="332.64"/>
  </clipPath>
 </defs>
</svg>
