<?xml version="1.0" encoding="utf-8" standalone="no"?>
<!DOCTYPE svg PUBLIC "-//W3C//DTD SVG 1.1//EN"
  "http://www.w3.org/Graphics/SVG/1.1/DTD/svg11.dtd">
<svg xmlns:xlink="http://www.w3.org/1999/xlink" width="864pt" height="432pt" viewBox="0 0 864 432" xmlns="http://www.w3.org/2000/svg" version="1.1">
 <metadata>
  <rdf:RDF xmlns:dc="http://purl.org/dc/elements/1.1/" xmlns:cc="http://creativecommons.org/ns#" xmlns:rdf="http://www.w3.org/1999/02/22-rdf-syntax-ns#">
   <cc:Work>
    <dc:type rdf:resource="http://purl.org/dc/dcmitype/StillImage"/>
    <dc:date>2024-09-01T12:43:47.861831</dc:date>
    <dc:format>image/svg+xml</dc:format>
    <dc:creator>
     <cc:Agent>
      <dc:title>Matplotlib v3.8.4, https://matplotlib.org/</dc:title>
     </cc:Agent>
    </dc:creator>
   </cc:Work>
  </rdf:RDF>
 </metadata>
 <defs>
  <style type="text/css">*{stroke-linejoin: round; stroke-linecap: butt}</style>
 </defs>
 <g id="figure_1">
  <g id="patch_1">
   <path d="M 0 432 
L 864 432 
L 864 0 
L 0 0 
z
" style="fill: #ffffff"/>
  </g>
  <g id="axes_1">
   <g id="patch_2">
    <path d="M 108 384.48 
L 777.6 384.48 
L 777.6 51.84 
L 108 51.84 
z
" style="fill: #ffffff"/>
   </g>
   <g id="matplotlib.axis_1">
    <g id="xtick_1">
     <g id="line2d_1">
      <path d="M 138.436364 384.48 
L 138.436364 51.84 
" clip-path="url(#p3ca52b981a)" style="fill: none; stroke: #b0b0b0; stroke-width: 0.8; stroke-linecap: square"/>
     </g>
     <g id="line2d_2">
      <defs>
       <path id="mc92950d24a" d="M 0 0 
L 0 3.5 
" style="stroke: #000000; stroke-width: 0.8"/>
      </defs>
      <g>
       <use xlink:href="#mc92950d24a" x="138.436364" y="384.48" style="stroke: #000000; stroke-width: 0.8"/>
      </g>
     </g>
     <g id="text_1">
      <!-- 0 -->
      <g transform="translate(135.255114 399.078438) scale(0.1 -0.1)">
       <defs>
        <path id="DejaVuSans-30" d="M 2034 4250 
Q 1547 4250 1301 3770 
Q 1056 3291 1056 2328 
Q 1056 1369 1301 889 
Q 1547 409 2034 409 
Q 2525 409 2770 889 
Q 3016 1369 3016 2328 
Q 3016 3291 2770 3770 
Q 2525 4250 2034 4250 
z
M 2034 4750 
Q 2819 4750 3233 4129 
Q 3647 3509 3647 2328 
Q 3647 1150 3233 529 
Q 2819 -91 2034 -91 
Q 1250 -91 836 529 
Q 422 1150 422 2328 
Q 422 3509 836 4129 
Q 1250 4750 2034 4750 
z
" transform="scale(0.015625)"/>
       </defs>
       <use xlink:href="#DejaVuSans-30"/>
      </g>
     </g>
    </g>
    <g id="xtick_2">
     <g id="line2d_3">
      <path d="M 253.290566 384.48 
L 253.290566 51.84 
" clip-path="url(#p3ca52b981a)" style="fill: none; stroke: #b0b0b0; stroke-width: 0.8; stroke-linecap: square"/>
     </g>
     <g id="line2d_4">
      <g>
       <use xlink:href="#mc92950d24a" x="253.290566" y="384.48" style="stroke: #000000; stroke-width: 0.8"/>
      </g>
     </g>
     <g id="text_2">
      <!-- 20 -->
      <g transform="translate(246.928066 399.078438) scale(0.1 -0.1)">
       <defs>
        <path id="DejaVuSans-32" d="M 1228 531 
L 3431 531 
L 3431 0 
L 469 0 
L 469 531 
Q 828 903 1448 1529 
Q 2069 2156 2228 2338 
Q 2531 2678 2651 2914 
Q 2772 3150 2772 3378 
Q 2772 3750 2511 3984 
Q 2250 4219 1831 4219 
Q 1534 4219 1204 4116 
Q 875 4013 500 3803 
L 500 4441 
Q 881 4594 1212 4672 
Q 1544 4750 1819 4750 
Q 2544 4750 2975 4387 
Q 3406 4025 3406 3419 
Q 3406 3131 3298 2873 
Q 3191 2616 2906 2266 
Q 2828 2175 2409 1742 
Q 1991 1309 1228 531 
z
" transform="scale(0.015625)"/>
       </defs>
       <use xlink:href="#DejaVuSans-32"/>
       <use xlink:href="#DejaVuSans-30" x="63.623047"/>
      </g>
     </g>
    </g>
    <g id="xtick_3">
     <g id="line2d_5">
      <path d="M 368.144768 384.48 
L 368.144768 51.84 
" clip-path="url(#p3ca52b981a)" style="fill: none; stroke: #b0b0b0; stroke-width: 0.8; stroke-linecap: square"/>
     </g>
     <g id="line2d_6">
      <g>
       <use xlink:href="#mc92950d24a" x="368.144768" y="384.48" style="stroke: #000000; stroke-width: 0.8"/>
      </g>
     </g>
     <g id="text_3">
      <!-- 40 -->
      <g transform="translate(361.782268 399.078438) scale(0.1 -0.1)">
       <defs>
        <path id="DejaVuSans-34" d="M 2419 4116 
L 825 1625 
L 2419 1625 
L 2419 4116 
z
M 2253 4666 
L 3047 4666 
L 3047 1625 
L 3713 1625 
L 3713 1100 
L 3047 1100 
L 3047 0 
L 2419 0 
L 2419 1100 
L 313 1100 
L 313 1709 
L 2253 4666 
z
" transform="scale(0.015625)"/>
       </defs>
       <use xlink:href="#DejaVuSans-34"/>
       <use xlink:href="#DejaVuSans-30" x="63.623047"/>
      </g>
     </g>
    </g>
    <g id="xtick_4">
     <g id="line2d_7">
      <path d="M 482.998971 384.48 
L 482.998971 51.84 
" clip-path="url(#p3ca52b981a)" style="fill: none; stroke: #b0b0b0; stroke-width: 0.8; stroke-linecap: square"/>
     </g>
     <g id="line2d_8">
      <g>
       <use xlink:href="#mc92950d24a" x="482.998971" y="384.48" style="stroke: #000000; stroke-width: 0.8"/>
      </g>
     </g>
     <g id="text_4">
      <!-- 60 -->
      <g transform="translate(476.636471 399.078438) scale(0.1 -0.1)">
       <defs>
        <path id="DejaVuSans-36" d="M 2113 2584 
Q 1688 2584 1439 2293 
Q 1191 2003 1191 1497 
Q 1191 994 1439 701 
Q 1688 409 2113 409 
Q 2538 409 2786 701 
Q 3034 994 3034 1497 
Q 3034 2003 2786 2293 
Q 2538 2584 2113 2584 
z
M 3366 4563 
L 3366 3988 
Q 3128 4100 2886 4159 
Q 2644 4219 2406 4219 
Q 1781 4219 1451 3797 
Q 1122 3375 1075 2522 
Q 1259 2794 1537 2939 
Q 1816 3084 2150 3084 
Q 2853 3084 3261 2657 
Q 3669 2231 3669 1497 
Q 3669 778 3244 343 
Q 2819 -91 2113 -91 
Q 1303 -91 875 529 
Q 447 1150 447 2328 
Q 447 3434 972 4092 
Q 1497 4750 2381 4750 
Q 2619 4750 2861 4703 
Q 3103 4656 3366 4563 
z
" transform="scale(0.015625)"/>
       </defs>
       <use xlink:href="#DejaVuSans-36"/>
       <use xlink:href="#DejaVuSans-30" x="63.623047"/>
      </g>
     </g>
    </g>
    <g id="xtick_5">
     <g id="line2d_9">
      <path d="M 597.853173 384.48 
L 597.853173 51.84 
" clip-path="url(#p3ca52b981a)" style="fill: none; stroke: #b0b0b0; stroke-width: 0.8; stroke-linecap: square"/>
     </g>
     <g id="line2d_10">
      <g>
       <use xlink:href="#mc92950d24a" x="597.853173" y="384.48" style="stroke: #000000; stroke-width: 0.8"/>
      </g>
     </g>
     <g id="text_5">
      <!-- 80 -->
      <g transform="translate(591.490673 399.078438) scale(0.1 -0.1)">
       <defs>
        <path id="DejaVuSans-38" d="M 2034 2216 
Q 1584 2216 1326 1975 
Q 1069 1734 1069 1313 
Q 1069 891 1326 650 
Q 1584 409 2034 409 
Q 2484 409 2743 651 
Q 3003 894 3003 1313 
Q 3003 1734 2745 1975 
Q 2488 2216 2034 2216 
z
M 1403 2484 
Q 997 2584 770 2862 
Q 544 3141 544 3541 
Q 544 4100 942 4425 
Q 1341 4750 2034 4750 
Q 2731 4750 3128 4425 
Q 3525 4100 3525 3541 
Q 3525 3141 3298 2862 
Q 3072 2584 2669 2484 
Q 3125 2378 3379 2068 
Q 3634 1759 3634 1313 
Q 3634 634 3220 271 
Q 2806 -91 2034 -91 
Q 1263 -91 848 271 
Q 434 634 434 1313 
Q 434 1759 690 2068 
Q 947 2378 1403 2484 
z
M 1172 3481 
Q 1172 3119 1398 2916 
Q 1625 2713 2034 2713 
Q 2441 2713 2670 2916 
Q 2900 3119 2900 3481 
Q 2900 3844 2670 4047 
Q 2441 4250 2034 4250 
Q 1625 4250 1398 4047 
Q 1172 3844 1172 3481 
z
" transform="scale(0.015625)"/>
       </defs>
       <use xlink:href="#DejaVuSans-38"/>
       <use xlink:href="#DejaVuSans-30" x="63.623047"/>
      </g>
     </g>
    </g>
    <g id="xtick_6">
     <g id="line2d_11">
      <path d="M 712.707376 384.48 
L 712.707376 51.84 
" clip-path="url(#p3ca52b981a)" style="fill: none; stroke: #b0b0b0; stroke-width: 0.8; stroke-linecap: square"/>
     </g>
     <g id="line2d_12">
      <g>
       <use xlink:href="#mc92950d24a" x="712.707376" y="384.48" style="stroke: #000000; stroke-width: 0.8"/>
      </g>
     </g>
     <g id="text_6">
      <!-- 100 -->
      <g transform="translate(703.163626 399.078438) scale(0.1 -0.1)">
       <defs>
        <path id="DejaVuSans-31" d="M 794 531 
L 1825 531 
L 1825 4091 
L 703 3866 
L 703 4441 
L 1819 4666 
L 2450 4666 
L 2450 531 
L 3481 531 
L 3481 0 
L 794 0 
L 794 531 
z
" transform="scale(0.015625)"/>
       </defs>
       <use xlink:href="#DejaVuSans-31"/>
       <use xlink:href="#DejaVuSans-30" x="63.623047"/>
       <use xlink:href="#DejaVuSans-30" x="127.246094"/>
      </g>
     </g>
    </g>
    <g id="text_7">
     <!-- Epoch -->
     <g transform="translate(427.489062 412.756563) scale(0.1 -0.1)">
      <defs>
       <path id="DejaVuSans-45" d="M 628 4666 
L 3578 4666 
L 3578 4134 
L 1259 4134 
L 1259 2753 
L 3481 2753 
L 3481 2222 
L 1259 2222 
L 1259 531 
L 3634 531 
L 3634 0 
L 628 0 
L 628 4666 
z
" transform="scale(0.015625)"/>
       <path id="DejaVuSans-70" d="M 1159 525 
L 1159 -1331 
L 581 -1331 
L 581 3500 
L 1159 3500 
L 1159 2969 
Q 1341 3281 1617 3432 
Q 1894 3584 2278 3584 
Q 2916 3584 3314 3078 
Q 3713 2572 3713 1747 
Q 3713 922 3314 415 
Q 2916 -91 2278 -91 
Q 1894 -91 1617 61 
Q 1341 213 1159 525 
z
M 3116 1747 
Q 3116 2381 2855 2742 
Q 2594 3103 2138 3103 
Q 1681 3103 1420 2742 
Q 1159 2381 1159 1747 
Q 1159 1113 1420 752 
Q 1681 391 2138 391 
Q 2594 391 2855 752 
Q 3116 1113 3116 1747 
z
" transform="scale(0.015625)"/>
       <path id="DejaVuSans-6f" d="M 1959 3097 
Q 1497 3097 1228 2736 
Q 959 2375 959 1747 
Q 959 1119 1226 758 
Q 1494 397 1959 397 
Q 2419 397 2687 759 
Q 2956 1122 2956 1747 
Q 2956 2369 2687 2733 
Q 2419 3097 1959 3097 
z
M 1959 3584 
Q 2709 3584 3137 3096 
Q 3566 2609 3566 1747 
Q 3566 888 3137 398 
Q 2709 -91 1959 -91 
Q 1206 -91 779 398 
Q 353 888 353 1747 
Q 353 2609 779 3096 
Q 1206 3584 1959 3584 
z
" transform="scale(0.015625)"/>
       <path id="DejaVuSans-63" d="M 3122 3366 
L 3122 2828 
Q 2878 2963 2633 3030 
Q 2388 3097 2138 3097 
Q 1578 3097 1268 2742 
Q 959 2388 959 1747 
Q 959 1106 1268 751 
Q 1578 397 2138 397 
Q 2388 397 2633 464 
Q 2878 531 3122 666 
L 3122 134 
Q 2881 22 2623 -34 
Q 2366 -91 2075 -91 
Q 1284 -91 818 406 
Q 353 903 353 1747 
Q 353 2603 823 3093 
Q 1294 3584 2113 3584 
Q 2378 3584 2631 3529 
Q 2884 3475 3122 3366 
z
" transform="scale(0.015625)"/>
       <path id="DejaVuSans-68" d="M 3513 2113 
L 3513 0 
L 2938 0 
L 2938 2094 
Q 2938 2591 2744 2837 
Q 2550 3084 2163 3084 
Q 1697 3084 1428 2787 
Q 1159 2491 1159 1978 
L 1159 0 
L 581 0 
L 581 4863 
L 1159 4863 
L 1159 2956 
Q 1366 3272 1645 3428 
Q 1925 3584 2291 3584 
Q 2894 3584 3203 3211 
Q 3513 2838 3513 2113 
z
" transform="scale(0.015625)"/>
      </defs>
      <use xlink:href="#DejaVuSans-45"/>
      <use xlink:href="#DejaVuSans-70" x="63.183594"/>
      <use xlink:href="#DejaVuSans-6f" x="126.660156"/>
      <use xlink:href="#DejaVuSans-63" x="187.841797"/>
      <use xlink:href="#DejaVuSans-68" x="242.822266"/>
     </g>
    </g>
   </g>
   <g id="matplotlib.axis_2">
    <g id="ytick_1">
     <g id="line2d_13">
      <path d="M 108 371.922712 
L 777.6 371.922712 
" clip-path="url(#p3ca52b981a)" style="fill: none; stroke: #b0b0b0; stroke-width: 0.8; stroke-linecap: square"/>
     </g>
     <g id="line2d_14">
      <defs>
       <path id="m05b6d1462d" d="M 0 0 
L -3.5 0 
" style="stroke: #000000; stroke-width: 0.8"/>
      </defs>
      <g>
       <use xlink:href="#m05b6d1462d" x="108" y="371.922712" style="stroke: #000000; stroke-width: 0.8"/>
      </g>
     </g>
     <g id="text_8">
      <!-- 0.955 -->
      <g transform="translate(72.371875 375.721931) scale(0.1 -0.1)">
       <defs>
        <path id="DejaVuSans-2e" d="M 684 794 
L 1344 794 
L 1344 0 
L 684 0 
L 684 794 
z
" transform="scale(0.015625)"/>
        <path id="DejaVuSans-39" d="M 703 97 
L 703 672 
Q 941 559 1184 500 
Q 1428 441 1663 441 
Q 2288 441 2617 861 
Q 2947 1281 2994 2138 
Q 2813 1869 2534 1725 
Q 2256 1581 1919 1581 
Q 1219 1581 811 2004 
Q 403 2428 403 3163 
Q 403 3881 828 4315 
Q 1253 4750 1959 4750 
Q 2769 4750 3195 4129 
Q 3622 3509 3622 2328 
Q 3622 1225 3098 567 
Q 2575 -91 1691 -91 
Q 1453 -91 1209 -44 
Q 966 3 703 97 
z
M 1959 2075 
Q 2384 2075 2632 2365 
Q 2881 2656 2881 3163 
Q 2881 3666 2632 3958 
Q 2384 4250 1959 4250 
Q 1534 4250 1286 3958 
Q 1038 3666 1038 3163 
Q 1038 2656 1286 2365 
Q 1534 2075 1959 2075 
z
" transform="scale(0.015625)"/>
        <path id="DejaVuSans-35" d="M 691 4666 
L 3169 4666 
L 3169 4134 
L 1269 4134 
L 1269 2991 
Q 1406 3038 1543 3061 
Q 1681 3084 1819 3084 
Q 2600 3084 3056 2656 
Q 3513 2228 3513 1497 
Q 3513 744 3044 326 
Q 2575 -91 1722 -91 
Q 1428 -91 1123 -41 
Q 819 9 494 109 
L 494 744 
Q 775 591 1075 516 
Q 1375 441 1709 441 
Q 2250 441 2565 725 
Q 2881 1009 2881 1497 
Q 2881 1984 2565 2268 
Q 2250 2553 1709 2553 
Q 1456 2553 1204 2497 
Q 953 2441 691 2322 
L 691 4666 
z
" transform="scale(0.015625)"/>
       </defs>
       <use xlink:href="#DejaVuSans-30"/>
       <use xlink:href="#DejaVuSans-2e" x="63.623047"/>
       <use xlink:href="#DejaVuSans-39" x="95.410156"/>
       <use xlink:href="#DejaVuSans-35" x="159.033203"/>
       <use xlink:href="#DejaVuSans-35" x="222.65625"/>
      </g>
     </g>
    </g>
    <g id="ytick_2">
     <g id="line2d_15">
      <path d="M 108 329.210847 
L 777.6 329.210847 
" clip-path="url(#p3ca52b981a)" style="fill: none; stroke: #b0b0b0; stroke-width: 0.8; stroke-linecap: square"/>
     </g>
     <g id="line2d_16">
      <g>
       <use xlink:href="#m05b6d1462d" x="108" y="329.210847" style="stroke: #000000; stroke-width: 0.8"/>
      </g>
     </g>
     <g id="text_9">
      <!-- 0.960 -->
      <g transform="translate(72.371875 333.010066) scale(0.1 -0.1)">
       <use xlink:href="#DejaVuSans-30"/>
       <use xlink:href="#DejaVuSans-2e" x="63.623047"/>
       <use xlink:href="#DejaVuSans-39" x="95.410156"/>
       <use xlink:href="#DejaVuSans-36" x="159.033203"/>
       <use xlink:href="#DejaVuSans-30" x="222.65625"/>
      </g>
     </g>
    </g>
    <g id="ytick_3">
     <g id="line2d_17">
      <path d="M 108 286.498983 
L 777.6 286.498983 
" clip-path="url(#p3ca52b981a)" style="fill: none; stroke: #b0b0b0; stroke-width: 0.8; stroke-linecap: square"/>
     </g>
     <g id="line2d_18">
      <g>
       <use xlink:href="#m05b6d1462d" x="108" y="286.498983" style="stroke: #000000; stroke-width: 0.8"/>
      </g>
     </g>
     <g id="text_10">
      <!-- 0.965 -->
      <g transform="translate(72.371875 290.298202) scale(0.1 -0.1)">
       <use xlink:href="#DejaVuSans-30"/>
       <use xlink:href="#DejaVuSans-2e" x="63.623047"/>
       <use xlink:href="#DejaVuSans-39" x="95.410156"/>
       <use xlink:href="#DejaVuSans-36" x="159.033203"/>
       <use xlink:href="#DejaVuSans-35" x="222.65625"/>
      </g>
     </g>
    </g>
    <g id="ytick_4">
     <g id="line2d_19">
      <path d="M 108 243.787119 
L 777.6 243.787119 
" clip-path="url(#p3ca52b981a)" style="fill: none; stroke: #b0b0b0; stroke-width: 0.8; stroke-linecap: square"/>
     </g>
     <g id="line2d_20">
      <g>
       <use xlink:href="#m05b6d1462d" x="108" y="243.787119" style="stroke: #000000; stroke-width: 0.8"/>
      </g>
     </g>
     <g id="text_11">
      <!-- 0.970 -->
      <g transform="translate(72.371875 247.586337) scale(0.1 -0.1)">
       <defs>
        <path id="DejaVuSans-37" d="M 525 4666 
L 3525 4666 
L 3525 4397 
L 1831 0 
L 1172 0 
L 2766 4134 
L 525 4134 
L 525 4666 
z
" transform="scale(0.015625)"/>
       </defs>
       <use xlink:href="#DejaVuSans-30"/>
       <use xlink:href="#DejaVuSans-2e" x="63.623047"/>
       <use xlink:href="#DejaVuSans-39" x="95.410156"/>
       <use xlink:href="#DejaVuSans-37" x="159.033203"/>
       <use xlink:href="#DejaVuSans-30" x="222.65625"/>
      </g>
     </g>
    </g>
    <g id="ytick_5">
     <g id="line2d_21">
      <path d="M 108 201.075254 
L 777.6 201.075254 
" clip-path="url(#p3ca52b981a)" style="fill: none; stroke: #b0b0b0; stroke-width: 0.8; stroke-linecap: square"/>
     </g>
     <g id="line2d_22">
      <g>
       <use xlink:href="#m05b6d1462d" x="108" y="201.075254" style="stroke: #000000; stroke-width: 0.8"/>
      </g>
     </g>
     <g id="text_12">
      <!-- 0.975 -->
      <g transform="translate(72.371875 204.874473) scale(0.1 -0.1)">
       <use xlink:href="#DejaVuSans-30"/>
       <use xlink:href="#DejaVuSans-2e" x="63.623047"/>
       <use xlink:href="#DejaVuSans-39" x="95.410156"/>
       <use xlink:href="#DejaVuSans-37" x="159.033203"/>
       <use xlink:href="#DejaVuSans-35" x="222.65625"/>
      </g>
     </g>
    </g>
    <g id="ytick_6">
     <g id="line2d_23">
      <path d="M 108 158.36339 
L 777.6 158.36339 
" clip-path="url(#p3ca52b981a)" style="fill: none; stroke: #b0b0b0; stroke-width: 0.8; stroke-linecap: square"/>
     </g>
     <g id="line2d_24">
      <g>
       <use xlink:href="#m05b6d1462d" x="108" y="158.36339" style="stroke: #000000; stroke-width: 0.8"/>
      </g>
     </g>
     <g id="text_13">
      <!-- 0.980 -->
      <g transform="translate(72.371875 162.162609) scale(0.1 -0.1)">
       <use xlink:href="#DejaVuSans-30"/>
       <use xlink:href="#DejaVuSans-2e" x="63.623047"/>
       <use xlink:href="#DejaVuSans-39" x="95.410156"/>
       <use xlink:href="#DejaVuSans-38" x="159.033203"/>
       <use xlink:href="#DejaVuSans-30" x="222.65625"/>
      </g>
     </g>
    </g>
    <g id="ytick_7">
     <g id="line2d_25">
      <path d="M 108 115.651525 
L 777.6 115.651525 
" clip-path="url(#p3ca52b981a)" style="fill: none; stroke: #b0b0b0; stroke-width: 0.8; stroke-linecap: square"/>
     </g>
     <g id="line2d_26">
      <g>
       <use xlink:href="#m05b6d1462d" x="108" y="115.651525" style="stroke: #000000; stroke-width: 0.8"/>
      </g>
     </g>
     <g id="text_14">
      <!-- 0.985 -->
      <g transform="translate(72.371875 119.450744) scale(0.1 -0.1)">
       <use xlink:href="#DejaVuSans-30"/>
       <use xlink:href="#DejaVuSans-2e" x="63.623047"/>
       <use xlink:href="#DejaVuSans-39" x="95.410156"/>
       <use xlink:href="#DejaVuSans-38" x="159.033203"/>
       <use xlink:href="#DejaVuSans-35" x="222.65625"/>
      </g>
     </g>
    </g>
    <g id="ytick_8">
     <g id="line2d_27">
      <path d="M 108 72.939661 
L 777.6 72.939661 
" clip-path="url(#p3ca52b981a)" style="fill: none; stroke: #b0b0b0; stroke-width: 0.8; stroke-linecap: square"/>
     </g>
     <g id="line2d_28">
      <g>
       <use xlink:href="#m05b6d1462d" x="108" y="72.939661" style="stroke: #000000; stroke-width: 0.8"/>
      </g>
     </g>
     <g id="text_15">
      <!-- 0.990 -->
      <g transform="translate(72.371875 76.73888) scale(0.1 -0.1)">
       <use xlink:href="#DejaVuSans-30"/>
       <use xlink:href="#DejaVuSans-2e" x="63.623047"/>
       <use xlink:href="#DejaVuSans-39" x="95.410156"/>
       <use xlink:href="#DejaVuSans-39" x="159.033203"/>
       <use xlink:href="#DejaVuSans-30" x="222.65625"/>
      </g>
     </g>
    </g>
    <g id="text_16">
     <!-- ROC_AUC -->
     <g transform="translate(66.014062 242.132656) rotate(-90) scale(0.1 -0.1)">
      <defs>
       <path id="DejaVuSans-52" d="M 2841 2188 
Q 3044 2119 3236 1894 
Q 3428 1669 3622 1275 
L 4263 0 
L 3584 0 
L 2988 1197 
Q 2756 1666 2539 1819 
Q 2322 1972 1947 1972 
L 1259 1972 
L 1259 0 
L 628 0 
L 628 4666 
L 2053 4666 
Q 2853 4666 3247 4331 
Q 3641 3997 3641 3322 
Q 3641 2881 3436 2590 
Q 3231 2300 2841 2188 
z
M 1259 4147 
L 1259 2491 
L 2053 2491 
Q 2509 2491 2742 2702 
Q 2975 2913 2975 3322 
Q 2975 3731 2742 3939 
Q 2509 4147 2053 4147 
L 1259 4147 
z
" transform="scale(0.015625)"/>
       <path id="DejaVuSans-4f" d="M 2522 4238 
Q 1834 4238 1429 3725 
Q 1025 3213 1025 2328 
Q 1025 1447 1429 934 
Q 1834 422 2522 422 
Q 3209 422 3611 934 
Q 4013 1447 4013 2328 
Q 4013 3213 3611 3725 
Q 3209 4238 2522 4238 
z
M 2522 4750 
Q 3503 4750 4090 4092 
Q 4678 3434 4678 2328 
Q 4678 1225 4090 567 
Q 3503 -91 2522 -91 
Q 1538 -91 948 565 
Q 359 1222 359 2328 
Q 359 3434 948 4092 
Q 1538 4750 2522 4750 
z
" transform="scale(0.015625)"/>
       <path id="DejaVuSans-43" d="M 4122 4306 
L 4122 3641 
Q 3803 3938 3442 4084 
Q 3081 4231 2675 4231 
Q 1875 4231 1450 3742 
Q 1025 3253 1025 2328 
Q 1025 1406 1450 917 
Q 1875 428 2675 428 
Q 3081 428 3442 575 
Q 3803 722 4122 1019 
L 4122 359 
Q 3791 134 3420 21 
Q 3050 -91 2638 -91 
Q 1578 -91 968 557 
Q 359 1206 359 2328 
Q 359 3453 968 4101 
Q 1578 4750 2638 4750 
Q 3056 4750 3426 4639 
Q 3797 4528 4122 4306 
z
" transform="scale(0.015625)"/>
       <path id="DejaVuSans-5f" d="M 3263 -1063 
L 3263 -1509 
L -63 -1509 
L -63 -1063 
L 3263 -1063 
z
" transform="scale(0.015625)"/>
       <path id="DejaVuSans-41" d="M 2188 4044 
L 1331 1722 
L 3047 1722 
L 2188 4044 
z
M 1831 4666 
L 2547 4666 
L 4325 0 
L 3669 0 
L 3244 1197 
L 1141 1197 
L 716 0 
L 50 0 
L 1831 4666 
z
" transform="scale(0.015625)"/>
       <path id="DejaVuSans-55" d="M 556 4666 
L 1191 4666 
L 1191 1831 
Q 1191 1081 1462 751 
Q 1734 422 2344 422 
Q 2950 422 3222 751 
Q 3494 1081 3494 1831 
L 3494 4666 
L 4128 4666 
L 4128 1753 
Q 4128 841 3676 375 
Q 3225 -91 2344 -91 
Q 1459 -91 1007 375 
Q 556 841 556 1753 
L 556 4666 
z
" transform="scale(0.015625)"/>
      </defs>
      <use xlink:href="#DejaVuSans-52"/>
      <use xlink:href="#DejaVuSans-4f" x="69.482422"/>
      <use xlink:href="#DejaVuSans-43" x="148.193359"/>
      <use xlink:href="#DejaVuSans-5f" x="218.017578"/>
      <use xlink:href="#DejaVuSans-41" x="268.017578"/>
      <use xlink:href="#DejaVuSans-55" x="336.425781"/>
      <use xlink:href="#DejaVuSans-43" x="409.619141"/>
     </g>
    </g>
   </g>
   <g id="line2d_29">
    <path d="M 138.436364 192.532881 
L 144.179074 369.36 
L 149.921784 155.800678 
L 155.664494 246.349831 
L 161.407204 211.326102 
L 167.149914 260.017627 
L 172.892624 271.122712 
L 178.635334 228.410847 
L 184.378045 205.346441 
L 190.120755 179.719322 
L 195.863465 79.773559 
L 201.606175 188.261695 
L 207.348885 224.139661 
L 213.091595 223.285424 
L 218.834305 225.848136 
L 224.577015 213.888814 
L 230.319726 178.865085 
L 236.062436 218.16 
L 241.805146 150.675254 
L 247.547856 179.719322 
L 253.290566 66.96 
L 259.033276 141.278644 
L 264.775986 113.943051 
L 270.518696 121.631186 
L 276.261407 81.482034 
L 282.004117 110.526102 
L 287.746827 116.505763 
L 293.489537 168.614237 
L 299.232247 187.407458 
L 304.974957 189.970169 
L 310.717667 179.719322 
L 316.460377 218.16 
L 322.203087 206.200678 
L 327.945798 195.095593 
L 333.688508 185.698983 
L 339.431218 154.092203 
L 345.173928 154.946441 
L 350.916638 114.797288 
L 356.659348 219.868475 
L 362.402058 90.878644 
L 368.144768 99.421017 
L 373.887479 189.115932 
L 379.630189 120.776949 
L 385.372899 148.96678 
L 391.115609 205.346441 
L 396.858319 120.776949 
L 402.601029 169.468475 
L 408.343739 131.882034 
L 414.086449 179.719322 
L 419.82916 140.424407 
L 425.57187 147.258305 
L 431.31458 123.339661 
L 437.05729 117.36 
L 442.8 148.112542 
L 448.54271 170.322712 
L 454.28542 183.990508 
L 460.02813 137.007458 
L 465.77084 149.821017 
L 471.513551 151.529492 
L 477.256261 146.404068 
L 482.998971 167.76 
L 488.741681 90.024407 
L 494.484391 98.56678 
L 500.227101 123.339661 
L 505.969811 117.36 
L 511.712521 87.461695 
L 517.455232 119.922712 
L 523.197942 90.024407 
L 528.940652 112.234576 
L 534.683362 116.505763 
L 540.426072 125.048136 
L 546.168782 84.898983 
L 551.911492 107.96339 
L 557.654202 121.631186 
L 563.396913 112.234576 
L 569.139623 110.526102 
L 574.882333 107.96339 
L 580.625043 110.526102 
L 586.367753 111.380339 
L 592.110463 107.109153 
L 597.853173 95.149831 
L 603.595883 112.234576 
L 609.338593 103.692203 
L 615.081304 108.817627 
L 620.824014 106.254915 
L 626.566724 108.817627 
L 632.309434 93.441356 
L 638.052144 102.837966 
L 643.794854 101.129492 
L 649.537564 88.315932 
L 655.280274 102.837966 
L 661.022985 109.671864 
L 666.765695 98.56678 
L 672.508405 100.275254 
L 678.251115 87.461695 
L 683.993825 101.983729 
L 689.736535 102.837966 
L 695.479245 107.96339 
L 701.221955 98.56678 
L 706.964666 101.129492 
L 712.707376 96.004068 
L 718.450086 102.837966 
L 724.192796 108.817627 
L 729.935506 98.56678 
L 735.678216 94.295593 
L 741.420926 108.817627 
L 747.163636 104.546441 
" clip-path="url(#p3ca52b981a)" style="fill: none; stroke: #0000ff; stroke-width: 1.5; stroke-linecap: square"/>
    <defs>
     <path id="mc675a9a89d" d="M 0 3 
C 0.795609 3 1.55874 2.683901 2.12132 2.12132 
C 2.683901 1.55874 3 0.795609 3 0 
C 3 -0.795609 2.683901 -1.55874 2.12132 -2.12132 
C 1.55874 -2.683901 0.795609 -3 0 -3 
C -0.795609 -3 -1.55874 -2.683901 -2.12132 -2.12132 
C -2.683901 -1.55874 -3 -0.795609 -3 0 
C -3 0.795609 -2.683901 1.55874 -2.12132 2.12132 
C -1.55874 2.683901 -0.795609 3 0 3 
z
" style="stroke: #0000ff"/>
    </defs>
    <g clip-path="url(#p3ca52b981a)">
     <use xlink:href="#mc675a9a89d" x="138.436364" y="192.532881" style="fill: #0000ff; stroke: #0000ff"/>
     <use xlink:href="#mc675a9a89d" x="144.179074" y="369.36" style="fill: #0000ff; stroke: #0000ff"/>
     <use xlink:href="#mc675a9a89d" x="149.921784" y="155.800678" style="fill: #0000ff; stroke: #0000ff"/>
     <use xlink:href="#mc675a9a89d" x="155.664494" y="246.349831" style="fill: #0000ff; stroke: #0000ff"/>
     <use xlink:href="#mc675a9a89d" x="161.407204" y="211.326102" style="fill: #0000ff; stroke: #0000ff"/>
     <use xlink:href="#mc675a9a89d" x="167.149914" y="260.017627" style="fill: #0000ff; stroke: #0000ff"/>
     <use xlink:href="#mc675a9a89d" x="172.892624" y="271.122712" style="fill: #0000ff; stroke: #0000ff"/>
     <use xlink:href="#mc675a9a89d" x="178.635334" y="228.410847" style="fill: #0000ff; stroke: #0000ff"/>
     <use xlink:href="#mc675a9a89d" x="184.378045" y="205.346441" style="fill: #0000ff; stroke: #0000ff"/>
     <use xlink:href="#mc675a9a89d" x="190.120755" y="179.719322" style="fill: #0000ff; stroke: #0000ff"/>
     <use xlink:href="#mc675a9a89d" x="195.863465" y="79.773559" style="fill: #0000ff; stroke: #0000ff"/>
     <use xlink:href="#mc675a9a89d" x="201.606175" y="188.261695" style="fill: #0000ff; stroke: #0000ff"/>
     <use xlink:href="#mc675a9a89d" x="207.348885" y="224.139661" style="fill: #0000ff; stroke: #0000ff"/>
     <use xlink:href="#mc675a9a89d" x="213.091595" y="223.285424" style="fill: #0000ff; stroke: #0000ff"/>
     <use xlink:href="#mc675a9a89d" x="218.834305" y="225.848136" style="fill: #0000ff; stroke: #0000ff"/>
     <use xlink:href="#mc675a9a89d" x="224.577015" y="213.888814" style="fill: #0000ff; stroke: #0000ff"/>
     <use xlink:href="#mc675a9a89d" x="230.319726" y="178.865085" style="fill: #0000ff; stroke: #0000ff"/>
     <use xlink:href="#mc675a9a89d" x="236.062436" y="218.16" style="fill: #0000ff; stroke: #0000ff"/>
     <use xlink:href="#mc675a9a89d" x="241.805146" y="150.675254" style="fill: #0000ff; stroke: #0000ff"/>
     <use xlink:href="#mc675a9a89d" x="247.547856" y="179.719322" style="fill: #0000ff; stroke: #0000ff"/>
     <use xlink:href="#mc675a9a89d" x="253.290566" y="66.96" style="fill: #0000ff; stroke: #0000ff"/>
     <use xlink:href="#mc675a9a89d" x="259.033276" y="141.278644" style="fill: #0000ff; stroke: #0000ff"/>
     <use xlink:href="#mc675a9a89d" x="264.775986" y="113.943051" style="fill: #0000ff; stroke: #0000ff"/>
     <use xlink:href="#mc675a9a89d" x="270.518696" y="121.631186" style="fill: #0000ff; stroke: #0000ff"/>
     <use xlink:href="#mc675a9a89d" x="276.261407" y="81.482034" style="fill: #0000ff; stroke: #0000ff"/>
     <use xlink:href="#mc675a9a89d" x="282.004117" y="110.526102" style="fill: #0000ff; stroke: #0000ff"/>
     <use xlink:href="#mc675a9a89d" x="287.746827" y="116.505763" style="fill: #0000ff; stroke: #0000ff"/>
     <use xlink:href="#mc675a9a89d" x="293.489537" y="168.614237" style="fill: #0000ff; stroke: #0000ff"/>
     <use xlink:href="#mc675a9a89d" x="299.232247" y="187.407458" style="fill: #0000ff; stroke: #0000ff"/>
     <use xlink:href="#mc675a9a89d" x="304.974957" y="189.970169" style="fill: #0000ff; stroke: #0000ff"/>
     <use xlink:href="#mc675a9a89d" x="310.717667" y="179.719322" style="fill: #0000ff; stroke: #0000ff"/>
     <use xlink:href="#mc675a9a89d" x="316.460377" y="218.16" style="fill: #0000ff; stroke: #0000ff"/>
     <use xlink:href="#mc675a9a89d" x="322.203087" y="206.200678" style="fill: #0000ff; stroke: #0000ff"/>
     <use xlink:href="#mc675a9a89d" x="327.945798" y="195.095593" style="fill: #0000ff; stroke: #0000ff"/>
     <use xlink:href="#mc675a9a89d" x="333.688508" y="185.698983" style="fill: #0000ff; stroke: #0000ff"/>
     <use xlink:href="#mc675a9a89d" x="339.431218" y="154.092203" style="fill: #0000ff; stroke: #0000ff"/>
     <use xlink:href="#mc675a9a89d" x="345.173928" y="154.946441" style="fill: #0000ff; stroke: #0000ff"/>
     <use xlink:href="#mc675a9a89d" x="350.916638" y="114.797288" style="fill: #0000ff; stroke: #0000ff"/>
     <use xlink:href="#mc675a9a89d" x="356.659348" y="219.868475" style="fill: #0000ff; stroke: #0000ff"/>
     <use xlink:href="#mc675a9a89d" x="362.402058" y="90.878644" style="fill: #0000ff; stroke: #0000ff"/>
     <use xlink:href="#mc675a9a89d" x="368.144768" y="99.421017" style="fill: #0000ff; stroke: #0000ff"/>
     <use xlink:href="#mc675a9a89d" x="373.887479" y="189.115932" style="fill: #0000ff; stroke: #0000ff"/>
     <use xlink:href="#mc675a9a89d" x="379.630189" y="120.776949" style="fill: #0000ff; stroke: #0000ff"/>
     <use xlink:href="#mc675a9a89d" x="385.372899" y="148.96678" style="fill: #0000ff; stroke: #0000ff"/>
     <use xlink:href="#mc675a9a89d" x="391.115609" y="205.346441" style="fill: #0000ff; stroke: #0000ff"/>
     <use xlink:href="#mc675a9a89d" x="396.858319" y="120.776949" style="fill: #0000ff; stroke: #0000ff"/>
     <use xlink:href="#mc675a9a89d" x="402.601029" y="169.468475" style="fill: #0000ff; stroke: #0000ff"/>
     <use xlink:href="#mc675a9a89d" x="408.343739" y="131.882034" style="fill: #0000ff; stroke: #0000ff"/>
     <use xlink:href="#mc675a9a89d" x="414.086449" y="179.719322" style="fill: #0000ff; stroke: #0000ff"/>
     <use xlink:href="#mc675a9a89d" x="419.82916" y="140.424407" style="fill: #0000ff; stroke: #0000ff"/>
     <use xlink:href="#mc675a9a89d" x="425.57187" y="147.258305" style="fill: #0000ff; stroke: #0000ff"/>
     <use xlink:href="#mc675a9a89d" x="431.31458" y="123.339661" style="fill: #0000ff; stroke: #0000ff"/>
     <use xlink:href="#mc675a9a89d" x="437.05729" y="117.36" style="fill: #0000ff; stroke: #0000ff"/>
     <use xlink:href="#mc675a9a89d" x="442.8" y="148.112542" style="fill: #0000ff; stroke: #0000ff"/>
     <use xlink:href="#mc675a9a89d" x="448.54271" y="170.322712" style="fill: #0000ff; stroke: #0000ff"/>
     <use xlink:href="#mc675a9a89d" x="454.28542" y="183.990508" style="fill: #0000ff; stroke: #0000ff"/>
     <use xlink:href="#mc675a9a89d" x="460.02813" y="137.007458" style="fill: #0000ff; stroke: #0000ff"/>
     <use xlink:href="#mc675a9a89d" x="465.77084" y="149.821017" style="fill: #0000ff; stroke: #0000ff"/>
     <use xlink:href="#mc675a9a89d" x="471.513551" y="151.529492" style="fill: #0000ff; stroke: #0000ff"/>
     <use xlink:href="#mc675a9a89d" x="477.256261" y="146.404068" style="fill: #0000ff; stroke: #0000ff"/>
     <use xlink:href="#mc675a9a89d" x="482.998971" y="167.76" style="fill: #0000ff; stroke: #0000ff"/>
     <use xlink:href="#mc675a9a89d" x="488.741681" y="90.024407" style="fill: #0000ff; stroke: #0000ff"/>
     <use xlink:href="#mc675a9a89d" x="494.484391" y="98.56678" style="fill: #0000ff; stroke: #0000ff"/>
     <use xlink:href="#mc675a9a89d" x="500.227101" y="123.339661" style="fill: #0000ff; stroke: #0000ff"/>
     <use xlink:href="#mc675a9a89d" x="505.969811" y="117.36" style="fill: #0000ff; stroke: #0000ff"/>
     <use xlink:href="#mc675a9a89d" x="511.712521" y="87.461695" style="fill: #0000ff; stroke: #0000ff"/>
     <use xlink:href="#mc675a9a89d" x="517.455232" y="119.922712" style="fill: #0000ff; stroke: #0000ff"/>
     <use xlink:href="#mc675a9a89d" x="523.197942" y="90.024407" style="fill: #0000ff; stroke: #0000ff"/>
     <use xlink:href="#mc675a9a89d" x="528.940652" y="112.234576" style="fill: #0000ff; stroke: #0000ff"/>
     <use xlink:href="#mc675a9a89d" x="534.683362" y="116.505763" style="fill: #0000ff; stroke: #0000ff"/>
     <use xlink:href="#mc675a9a89d" x="540.426072" y="125.048136" style="fill: #0000ff; stroke: #0000ff"/>
     <use xlink:href="#mc675a9a89d" x="546.168782" y="84.898983" style="fill: #0000ff; stroke: #0000ff"/>
     <use xlink:href="#mc675a9a89d" x="551.911492" y="107.96339" style="fill: #0000ff; stroke: #0000ff"/>
     <use xlink:href="#mc675a9a89d" x="557.654202" y="121.631186" style="fill: #0000ff; stroke: #0000ff"/>
     <use xlink:href="#mc675a9a89d" x="563.396913" y="112.234576" style="fill: #0000ff; stroke: #0000ff"/>
     <use xlink:href="#mc675a9a89d" x="569.139623" y="110.526102" style="fill: #0000ff; stroke: #0000ff"/>
     <use xlink:href="#mc675a9a89d" x="574.882333" y="107.96339" style="fill: #0000ff; stroke: #0000ff"/>
     <use xlink:href="#mc675a9a89d" x="580.625043" y="110.526102" style="fill: #0000ff; stroke: #0000ff"/>
     <use xlink:href="#mc675a9a89d" x="586.367753" y="111.380339" style="fill: #0000ff; stroke: #0000ff"/>
     <use xlink:href="#mc675a9a89d" x="592.110463" y="107.109153" style="fill: #0000ff; stroke: #0000ff"/>
     <use xlink:href="#mc675a9a89d" x="597.853173" y="95.149831" style="fill: #0000ff; stroke: #0000ff"/>
     <use xlink:href="#mc675a9a89d" x="603.595883" y="112.234576" style="fill: #0000ff; stroke: #0000ff"/>
     <use xlink:href="#mc675a9a89d" x="609.338593" y="103.692203" style="fill: #0000ff; stroke: #0000ff"/>
     <use xlink:href="#mc675a9a89d" x="615.081304" y="108.817627" style="fill: #0000ff; stroke: #0000ff"/>
     <use xlink:href="#mc675a9a89d" x="620.824014" y="106.254915" style="fill: #0000ff; stroke: #0000ff"/>
     <use xlink:href="#mc675a9a89d" x="626.566724" y="108.817627" style="fill: #0000ff; stroke: #0000ff"/>
     <use xlink:href="#mc675a9a89d" x="632.309434" y="93.441356" style="fill: #0000ff; stroke: #0000ff"/>
     <use xlink:href="#mc675a9a89d" x="638.052144" y="102.837966" style="fill: #0000ff; stroke: #0000ff"/>
     <use xlink:href="#mc675a9a89d" x="643.794854" y="101.129492" style="fill: #0000ff; stroke: #0000ff"/>
     <use xlink:href="#mc675a9a89d" x="649.537564" y="88.315932" style="fill: #0000ff; stroke: #0000ff"/>
     <use xlink:href="#mc675a9a89d" x="655.280274" y="102.837966" style="fill: #0000ff; stroke: #0000ff"/>
     <use xlink:href="#mc675a9a89d" x="661.022985" y="109.671864" style="fill: #0000ff; stroke: #0000ff"/>
     <use xlink:href="#mc675a9a89d" x="666.765695" y="98.56678" style="fill: #0000ff; stroke: #0000ff"/>
     <use xlink:href="#mc675a9a89d" x="672.508405" y="100.275254" style="fill: #0000ff; stroke: #0000ff"/>
     <use xlink:href="#mc675a9a89d" x="678.251115" y="87.461695" style="fill: #0000ff; stroke: #0000ff"/>
     <use xlink:href="#mc675a9a89d" x="683.993825" y="101.983729" style="fill: #0000ff; stroke: #0000ff"/>
     <use xlink:href="#mc675a9a89d" x="689.736535" y="102.837966" style="fill: #0000ff; stroke: #0000ff"/>
     <use xlink:href="#mc675a9a89d" x="695.479245" y="107.96339" style="fill: #0000ff; stroke: #0000ff"/>
     <use xlink:href="#mc675a9a89d" x="701.221955" y="98.56678" style="fill: #0000ff; stroke: #0000ff"/>
     <use xlink:href="#mc675a9a89d" x="706.964666" y="101.129492" style="fill: #0000ff; stroke: #0000ff"/>
     <use xlink:href="#mc675a9a89d" x="712.707376" y="96.004068" style="fill: #0000ff; stroke: #0000ff"/>
     <use xlink:href="#mc675a9a89d" x="718.450086" y="102.837966" style="fill: #0000ff; stroke: #0000ff"/>
     <use xlink:href="#mc675a9a89d" x="724.192796" y="108.817627" style="fill: #0000ff; stroke: #0000ff"/>
     <use xlink:href="#mc675a9a89d" x="729.935506" y="98.56678" style="fill: #0000ff; stroke: #0000ff"/>
     <use xlink:href="#mc675a9a89d" x="735.678216" y="94.295593" style="fill: #0000ff; stroke: #0000ff"/>
     <use xlink:href="#mc675a9a89d" x="741.420926" y="108.817627" style="fill: #0000ff; stroke: #0000ff"/>
     <use xlink:href="#mc675a9a89d" x="747.163636" y="104.546441" style="fill: #0000ff; stroke: #0000ff"/>
    </g>
   </g>
   <g id="patch_3">
    <path d="M 108 384.48 
L 108 51.84 
" style="fill: none; stroke: #000000; stroke-width: 0.8; stroke-linejoin: miter; stroke-linecap: square"/>
   </g>
   <g id="patch_4">
    <path d="M 777.6 384.48 
L 777.6 51.84 
" style="fill: none; stroke: #000000; stroke-width: 0.8; stroke-linejoin: miter; stroke-linecap: square"/>
   </g>
   <g id="patch_5">
    <path d="M 108 384.48 
L 777.6 384.48 
" style="fill: none; stroke: #000000; stroke-width: 0.8; stroke-linejoin: miter; stroke-linecap: square"/>
   </g>
   <g id="patch_6">
    <path d="M 108 51.84 
L 777.6 51.84 
" style="fill: none; stroke: #000000; stroke-width: 0.8; stroke-linejoin: miter; stroke-linecap: square"/>
   </g>
   <g id="text_17">
    <!-- ROC_AUC per Epoch -->
    <g transform="translate(381.878438 45.84) scale(0.12 -0.12)">
     <defs>
      <path id="DejaVuSans-20" transform="scale(0.015625)"/>
      <path id="DejaVuSans-65" d="M 3597 1894 
L 3597 1613 
L 953 1613 
Q 991 1019 1311 708 
Q 1631 397 2203 397 
Q 2534 397 2845 478 
Q 3156 559 3463 722 
L 3463 178 
Q 3153 47 2828 -22 
Q 2503 -91 2169 -91 
Q 1331 -91 842 396 
Q 353 884 353 1716 
Q 353 2575 817 3079 
Q 1281 3584 2069 3584 
Q 2775 3584 3186 3129 
Q 3597 2675 3597 1894 
z
M 3022 2063 
Q 3016 2534 2758 2815 
Q 2500 3097 2075 3097 
Q 1594 3097 1305 2825 
Q 1016 2553 972 2059 
L 3022 2063 
z
" transform="scale(0.015625)"/>
      <path id="DejaVuSans-72" d="M 2631 2963 
Q 2534 3019 2420 3045 
Q 2306 3072 2169 3072 
Q 1681 3072 1420 2755 
Q 1159 2438 1159 1844 
L 1159 0 
L 581 0 
L 581 3500 
L 1159 3500 
L 1159 2956 
Q 1341 3275 1631 3429 
Q 1922 3584 2338 3584 
Q 2397 3584 2469 3576 
Q 2541 3569 2628 3553 
L 2631 2963 
z
" transform="scale(0.015625)"/>
     </defs>
     <use xlink:href="#DejaVuSans-52"/>
     <use xlink:href="#DejaVuSans-4f" x="69.482422"/>
     <use xlink:href="#DejaVuSans-43" x="148.193359"/>
     <use xlink:href="#DejaVuSans-5f" x="218.017578"/>
     <use xlink:href="#DejaVuSans-41" x="268.017578"/>
     <use xlink:href="#DejaVuSans-55" x="336.425781"/>
     <use xlink:href="#DejaVuSans-43" x="409.619141"/>
     <use xlink:href="#DejaVuSans-20" x="479.443359"/>
     <use xlink:href="#DejaVuSans-70" x="511.230469"/>
     <use xlink:href="#DejaVuSans-65" x="574.707031"/>
     <use xlink:href="#DejaVuSans-72" x="636.230469"/>
     <use xlink:href="#DejaVuSans-20" x="677.34375"/>
     <use xlink:href="#DejaVuSans-45" x="709.130859"/>
     <use xlink:href="#DejaVuSans-70" x="772.314453"/>
     <use xlink:href="#DejaVuSans-6f" x="835.791016"/>
     <use xlink:href="#DejaVuSans-63" x="896.972656"/>
     <use xlink:href="#DejaVuSans-68" x="951.953125"/>
    </g>
   </g>
  </g>
 </g>
 <defs>
  <clipPath id="p3ca52b981a">
   <rect x="108" y="51.84" width="669.6" height="332.64"/>
  </clipPath>
 </defs>
</svg>
